<?xml version="1.0" encoding="utf-8"?>
<!-- Generator: Adobe Illustrator 27.6.1, SVG Export Plug-In . SVG Version: 6.00 Build 0)  -->
<svg version="1.1" id="Layer_1" xmlns="http://www.w3.org/2000/svg" xmlns:xlink="http://www.w3.org/1999/xlink" x="0px" y="0px"
	 viewBox="0 0 800 800" style="enable-background:new 0 0 800 800;" xml:space="preserve">
<style type="text/css">
	.st0{fill:#004987;}
</style>
<g>
	<path class="st0" d="M543.36,351.91v308.06h219.68l0.07-138.26H543.7v-3.48h219.42l0.1-166.32H800l-73.93-87.5h-182.7V351.91z
		 M610.98,507.81h-46.06V447.4h46.06V507.81z M611.31,433.84h-46.03v-60.37h46.03V433.84z M672.2,507.81h-46.06V447.4h46.06V507.81z
		 M672.53,433.84h-46.02v-60.37h46.02V433.84z M733.42,507.81H687.4V447.4h46.03V507.81z M733.75,433.84h-46.02v-60.37h46.02V433.84
		z M763.12,363.59H543.7v-3.47h219.42V363.59z M763.12,355.5H543.7v-3.48h219.42V355.5z"/>
	<path class="st0" d="M36.97,659.96h219.71V522.17v-3.47V362.88H37.26v-3.48h219.41v-3.91H37.26v-3.48h219.41v-87.62H73.94L0,351.9
		l36.97,0.3V659.96z M188.32,373.45h46.03v60.36h-46.03V373.45z M187.99,447.39h46.03v60.41h-46.03V447.39z M127.1,373.45h46.03
		v60.36H127.1V373.45z M126.76,447.39h46.03v60.41h-46.03V447.39z M65.88,373.45h46.03v60.36H65.88V373.45z M65.51,447.39h46.06
		v60.41H65.51V447.39z"/>
	<path class="st0" d="M278.37,207.74v56.67v395.56h243.26V264.41v-56.67v-3.26H278.48v-3.48h243.14v-3.7H278.48v-3.47h246.43v0.34
		h40.01L490.98,76.66h-182.7l-73.93,117.51h44.03V207.74z M438.04,293.39h46.03v60.37h-46.03V293.39z M376.82,293.39h46.03v60.37
		h-46.03V293.39z M378.04,447.4h46.06v60.41h-46.06V447.4z M378.41,433.84v-60.37h46.03v60.37H378.41z M423.18,264.41v15.41h-46.03
		v-15.41v-44.99h46.03V264.41z M315.94,219.42h46.03v44.99v15.41h-46.03v-15.41V219.42z M363.22,373.47v60.37h-46.03v-60.37H363.22z
		 M315.6,293.39h46.03v60.37H315.6V293.39z M316.82,447.4h46.03v60.41h-46.03V447.4z M333.64,542.9h64.51v104.76h-64.51V542.9z
		 M468.84,656.13H333.64v-3.48h135.19V656.13z M468.84,647.66h-64.52V542.9h64.52V647.66z M468.84,537.94H333.64v-3.48h135.19
		V537.94z M485.32,507.81h-46.06V447.4h46.06V507.81z M485.66,433.84h-46.03v-60.37h46.03V433.84z M484.44,279.82h-46.06v-15.41
		v-44.99h46.06v44.99V279.82z"/>
	<rect y="681.42" class="st0" width="800" height="41.92"/>
</g>
</svg>
