<?xml version="1.0" encoding="utf-8"?>
<!-- Generator: Adobe Illustrator 27.6.1, SVG Export Plug-In . SVG Version: 6.00 Build 0)  -->
<svg version="1.1" xmlns="http://www.w3.org/2000/svg" xmlns:xlink="http://www.w3.org/1999/xlink" x="0px" y="0px"
	 viewBox="0 0 800 800" style="enable-background:new 0 0 800 800;" xml:space="preserve">
<style type="text/css">
	.st0{display:none;}
	.st1{display:inline;}
	.st2{fill:#004987;}
</style>
<g id="Layer_1">
	<g class="st0">
		<g class="st1">
			<g>
				<g>
					<path class="st2" d="M289.38,638.89h-63.35c-3.68,0-6.68-2.99-6.68-6.68V359.76c0-3.69,2.99-6.68,6.68-6.68h63.35
						c3.68,0,6.68,2.99,6.68,6.68v272.45C296.06,635.89,293.07,638.89,289.38,638.89z M232.71,625.53h50v-259.1h-50V625.53z"/>
				</g>
				<g>
					<path class="st2" d="M179.25,638.89H115.9c-3.69,0-6.68-2.99-6.68-6.68V359.76c0-3.69,2.99-6.68,6.68-6.68h63.35
						c3.68,0,6.68,2.99,6.68,6.68v272.45C185.92,635.89,182.93,638.89,179.25,638.89z M122.57,625.53h50v-259.1h-50V625.53z"/>
				</g>
				<g>
					<path class="st2" d="M573.96,638.89h-63.35c-3.68,0-6.68-2.99-6.68-6.68V359.76c0-3.69,2.99-6.68,6.68-6.68h63.35
						c3.68,0,6.68,2.99,6.68,6.68v272.45C580.64,635.89,577.65,638.89,573.96,638.89z M517.29,625.53h50v-259.1h-50V625.53z"/>
				</g>
				<g>
					<path class="st2" d="M684.1,638.89h-63.35c-3.68,0-6.68-2.99-6.68-6.68V359.76c0-3.69,2.99-6.68,6.68-6.68h63.35
						c3.68,0,6.68,2.99,6.68,6.68v272.45C690.78,635.89,687.79,638.89,684.1,638.89z M627.42,625.53h50v-259.1h-50V625.53z"/>
				</g>
			</g>
			<g>
				<g>
					<path class="st2" d="M660.57,316.17c-3.68,0-6.68-2.99-6.68-6.68v-46.43L400,114.95L146.1,263.07v46.43
						c0,3.69-2.99,6.68-6.68,6.68c-3.69,0-6.68-2.99-6.68-6.68v-50.27c0-2.37,1.26-4.57,3.31-5.76l260.57-152.01
						c2.08-1.21,4.65-1.21,6.73,0l260.57,152.01c2.05,1.19,3.31,3.39,3.31,5.76v50.27C667.24,313.18,664.25,316.17,660.57,316.17z"
						/>
				</g>
				<g>
					<path class="st2" d="M766.2,702.05c-3.68,0-6.68-2.99-6.68-6.68v-15.64c0-21.77-17.57-40.85-37.6-40.85H423.27l-19.93,11.54
						c-2.19,1.26-4.91,1.18-7.03-0.21l-17.13-11.33H78.07c-20.03,0-37.6,19.09-37.6,40.85v15.64c0,3.68-2.99,6.68-6.68,6.68
						s-6.68-2.99-6.68-6.68v-15.64c0-28.87,23.81-54.2,50.95-54.2h303.12c1.31,0,2.59,0.38,3.68,1.11l15.36,10.16l17.91-10.37
						c1.02-0.59,2.17-0.9,3.34-0.9h300.44c27.14,0,50.95,25.33,50.95,54.2v15.64C772.87,699.06,769.88,702.05,766.2,702.05z"/>
				</g>
				<g>
					<path class="st2" d="M728.69,702.05c-3.68,0-6.68-2.99-6.68-6.68v-17.31c0-5.81-4.73-10.54-10.54-10.54H423.63l-19.74,14.2
						c-2.46,1.76-5.8,1.66-8.14-0.26l-16.96-13.93H88.52c-5.81,0-10.54,4.73-10.54,10.54v17.31c0,3.68-2.99,6.68-6.68,6.68
						c-3.68,0-6.68-2.99-6.68-6.68v-17.31c0-13.17,10.72-23.89,23.89-23.89h292.67c1.55,0,3.04,0.54,4.24,1.52l14.84,12.19
						l17.32-12.46c1.14-0.81,2.5-1.26,3.9-1.26h289.99c13.17,0,23.89,10.72,23.89,23.89v17.31
						C735.36,699.06,732.38,702.05,728.69,702.05z"/>
				</g>
			</g>
		</g>
		<g class="st1">
			<g>
				<g>
					<g>
						<path class="st2" d="M268.87,602.22h-22.32c-3.69,0-6.68-2.99-6.68-6.68v-188.7c0-3.68,2.99-6.68,6.68-6.68h22.32
							c3.68,0,6.68,2.99,6.68,6.68v188.7C275.54,599.23,272.55,602.22,268.87,602.22z M253.22,588.87h8.97V413.52h-8.97V588.87z"/>
					</g>
				</g>
				<path class="st2" d="M342.71,625.53v-111.2c0-31.58,25.7-57.28,57.28-57.28s57.28,25.7,57.28,57.28v111.2h13.35v-111.2
					c0-38.95-31.69-70.63-70.64-70.63s-70.64,31.68-70.64,70.63v111.2H342.71z"/>
				<g>
					<g>
						<path class="st2" d="M553.45,602.22h-22.32c-3.68,0-6.68-2.99-6.68-6.68v-188.7c0-3.68,2.99-6.68,6.68-6.68h22.32
							c3.69,0,6.68,2.99,6.68,6.68v188.7C560.12,599.23,557.13,602.22,553.45,602.22z M537.8,588.87h8.97V413.52h-8.97V588.87z"/>
					</g>
				</g>
				<g>
					<g>
						<path class="st2" d="M752.28,265.91H47.71c-3.01,0-5.66-2.02-6.45-4.93c-0.79-2.91,0.48-5.99,3.08-7.51L396.63,47.96
							c2.08-1.21,4.65-1.21,6.73,0l352.29,205.51c2.6,1.52,3.86,4.6,3.08,7.51C757.94,263.89,755.3,265.91,752.28,265.91z
							 M72.4,252.56h655.19L400,61.45L72.4,252.56z"/>
					</g>
					<g>
						<path class="st2" d="M400,231.56c-22.26,0-40.36-18.11-40.36-40.36c0-22.26,18.11-40.37,40.36-40.37
							c22.26,0,40.36,18.11,40.36,40.37C440.36,213.45,422.25,231.56,400,231.56z M400,164.18c-14.89,0-27.01,12.12-27.01,27.02
							c0,14.89,12.12,27.01,27.01,27.01c14.89,0,27.01-12.12,27.01-27.01C427.01,176.3,414.89,164.18,400,164.18z"/>
					</g>
					<g>
						<path class="st2" d="M761.21,366.44H38.79c-3.69,0-6.68-2.99-6.68-6.68V309.5c0-3.69,2.99-6.68,6.68-6.68h722.42
							c3.68,0,6.68,2.99,6.68,6.68v50.27C767.88,363.45,764.89,366.44,761.21,366.44z M45.46,353.09h709.07v-36.91H45.46V353.09z"/>
					</g>
					<g>
						<path class="st2" d="M400,752.95c-15.07,0-31.62-8.52-35.98-21.42H16.36C7.34,731.53,0,724.19,0,715.17v-8.91
							c0-9.02,7.34-16.36,16.36-16.36h365.15c2.11,0,4.1,1,5.36,2.69l8.41,11.31c1.12,1.51,2.84,2.37,4.72,2.37c0,0,0,0,0,0
							c1.88,0,3.6-0.86,4.72-2.37l8.41-11.3c1.26-1.7,3.24-2.69,5.36-2.69h365.15c9.03,0,16.36,7.34,16.36,16.36v8.91
							c0,9.03-7.34,16.36-16.36,16.36H435.97C431.62,744.43,415.07,752.95,400,752.95z M16.36,703.24c-1.66,0-3.01,1.35-3.01,3.01
							v8.91c0,1.66,1.35,3.01,3.01,3.01H369.6c3.69,0,6.68,2.99,6.68,6.68c0,7.3,11.98,14.74,23.73,14.74
							c11.75,0,23.72-7.44,23.72-14.74c0-3.69,2.99-6.68,6.68-6.68h353.23c1.66,0,3.01-1.35,3.01-3.01v-8.91
							c0-1.66-1.35-3.01-3.01-3.01H421.84l-6.41,8.61c-3.67,4.93-9.29,7.75-15.43,7.75c0,0,0,0,0,0c-6.14,0-11.76-2.83-15.43-7.75
							l-6.41-8.61H16.36z"/>
					</g>
				</g>
				<g>
					<rect x="122.57" y="588.87" class="st2" width="50" height="13.35"/>
					<rect x="122.57" y="564.79" class="st2" width="50" height="13.35"/>
					<rect x="122.57" y="413.84" class="st2" width="50" height="13.35"/>
					<rect x="122.57" y="389.75" class="st2" width="50" height="13.35"/>
				</g>
				<g>
					<rect x="627.42" y="588.87" class="st2" width="50" height="13.35"/>
					<rect x="627.42" y="564.79" class="st2" width="50" height="13.35"/>
					<rect x="627.42" y="413.84" class="st2" width="50" height="13.35"/>
					<rect x="627.42" y="389.75" class="st2" width="50" height="13.35"/>
				</g>
			</g>
		</g>
	</g>
	<g>
		<g>
			<g>
				<g>
					<path class="st2" d="M289.38,638.89h-63.35c-3.68,0-6.68-2.99-6.68-6.68V359.76c0-3.69,2.99-6.68,6.68-6.68h63.35
						c3.68,0,6.68,2.99,6.68,6.68v272.45C296.06,635.89,293.07,638.89,289.38,638.89z M232.71,625.53h50v-259.1h-50V625.53z"/>
				</g>
				<g>
					<path class="st2" d="M179.25,638.89H115.9c-3.69,0-6.68-2.99-6.68-6.68V359.76c0-3.69,2.99-6.68,6.68-6.68h63.35
						c3.68,0,6.68,2.99,6.68,6.68v272.45C185.92,635.89,182.93,638.89,179.25,638.89z M122.57,625.53h50v-259.1h-50V625.53z"/>
				</g>
				<g>
					<path class="st2" d="M573.96,638.89h-63.35c-3.68,0-6.68-2.99-6.68-6.68V359.76c0-3.69,2.99-6.68,6.68-6.68h63.35
						c3.68,0,6.68,2.99,6.68,6.68v272.45C580.64,635.89,577.65,638.89,573.96,638.89z M517.29,625.53h50v-259.1h-50V625.53z"/>
				</g>
				<g>
					<path class="st2" d="M684.1,638.89h-63.35c-3.68,0-6.68-2.99-6.68-6.68V359.76c0-3.69,2.99-6.68,6.68-6.68h63.35
						c3.68,0,6.68,2.99,6.68,6.68v272.45C690.78,635.89,687.79,638.89,684.1,638.89z M627.42,625.53h50v-259.1h-50V625.53z"/>
				</g>
			</g>
			<g>
				<g>
					<path class="st2" d="M660.57,316.17c-3.68,0-6.68-2.99-6.68-6.68v-46.43L400,114.95L146.1,263.07v46.43
						c0,3.69-2.99,6.68-6.68,6.68c-3.69,0-6.68-2.99-6.68-6.68v-50.27c0-2.37,1.26-4.57,3.31-5.76l260.57-152.01
						c2.08-1.21,4.65-1.21,6.73,0l260.57,152.01c2.05,1.19,3.31,3.39,3.31,5.76v50.27C667.24,313.18,664.25,316.17,660.57,316.17z"
						/>
				</g>
				<g>
					<path class="st2" d="M766.2,702.05c-3.68,0-6.68-2.99-6.68-6.68v-15.64c0-21.77-17.57-40.85-37.6-40.85H423.27l-19.93,11.54
						c-2.19,1.26-4.91,1.18-7.03-0.21l-17.13-11.33H78.07c-20.03,0-37.6,19.09-37.6,40.85v15.64c0,3.68-2.99,6.68-6.68,6.68
						s-6.68-2.99-6.68-6.68v-15.64c0-28.87,23.81-54.2,50.95-54.2h303.12c1.31,0,2.59,0.38,3.68,1.11l15.36,10.16l17.91-10.37
						c1.02-0.59,2.17-0.9,3.34-0.9h300.44c27.14,0,50.95,25.33,50.95,54.2v15.64C772.87,699.06,769.88,702.05,766.2,702.05z"/>
				</g>
				<g>
					<path class="st2" d="M728.69,702.05c-3.68,0-6.68-2.99-6.68-6.68v-17.31c0-5.81-4.73-10.54-10.54-10.54H423.63l-19.74,14.2
						c-2.46,1.76-5.8,1.66-8.14-0.26l-16.96-13.93H88.52c-5.81,0-10.54,4.73-10.54,10.54v17.31c0,3.68-2.99,6.68-6.68,6.68
						c-3.68,0-6.68-2.99-6.68-6.68v-17.31c0-13.17,10.72-23.89,23.89-23.89h292.67c1.55,0,3.04,0.54,4.24,1.52l14.84,12.19
						l17.32-12.46c1.14-0.81,2.5-1.26,3.9-1.26h289.99c13.17,0,23.89,10.72,23.89,23.89v17.31
						C735.36,699.06,732.38,702.05,728.69,702.05z"/>
				</g>
			</g>
		</g>
		<g>
			<g>
				<g>
					<g>
						<path class="st2" d="M268.87,602.22h-22.32c-3.69,0-6.68-2.99-6.68-6.68v-188.7c0-3.68,2.99-6.68,6.68-6.68h22.32
							c3.68,0,6.68,2.99,6.68,6.68v188.7C275.54,599.23,272.55,602.22,268.87,602.22z M253.22,588.87h8.97V413.52h-8.97V588.87z"/>
					</g>
				</g>
				<path class="st2" d="M342.71,625.53v-111.2c0-31.58,25.7-57.28,57.28-57.28s57.28,25.7,57.28,57.28v111.2h13.35v-111.2
					c0-38.95-31.69-70.63-70.64-70.63s-70.64,31.68-70.64,70.63v111.2H342.71z"/>
				<g>
					<g>
						<path class="st2" d="M553.45,602.22h-22.32c-3.68,0-6.68-2.99-6.68-6.68v-188.7c0-3.68,2.99-6.68,6.68-6.68h22.32
							c3.69,0,6.68,2.99,6.68,6.68v188.7C560.12,599.23,557.13,602.22,553.45,602.22z M537.8,588.87h8.97V413.52h-8.97V588.87z"/>
					</g>
				</g>
				<g>
					<g>
						<path class="st2" d="M752.28,265.91H47.71c-3.01,0-5.66-2.02-6.45-4.93c-0.79-2.91,0.48-5.99,3.08-7.51L396.63,47.96
							c2.08-1.21,4.65-1.21,6.73,0l352.29,205.51c2.6,1.52,3.86,4.6,3.08,7.51C757.94,263.89,755.3,265.91,752.28,265.91z
							 M72.4,252.56h655.19L400,61.45L72.4,252.56z"/>
					</g>
					<g>
						<path class="st2" d="M400,231.56c-22.26,0-40.36-18.11-40.36-40.36c0-22.26,18.11-40.37,40.36-40.37
							c22.26,0,40.36,18.11,40.36,40.37C440.36,213.45,422.25,231.56,400,231.56z M400,164.18c-14.89,0-27.01,12.12-27.01,27.02
							c0,14.89,12.12,27.01,27.01,27.01c14.89,0,27.01-12.12,27.01-27.01C427.01,176.3,414.89,164.18,400,164.18z"/>
					</g>
					<g>
						<path class="st2" d="M761.21,366.44H38.79c-3.69,0-6.68-2.99-6.68-6.68V309.5c0-3.69,2.99-6.68,6.68-6.68h722.42
							c3.68,0,6.68,2.99,6.68,6.68v50.27C767.88,363.45,764.89,366.44,761.21,366.44z M45.46,353.09h709.07v-36.91H45.46V353.09z"/>
					</g>
					<g>
						<path class="st2" d="M400,752.95c-15.07,0-31.62-8.52-35.98-21.42H16.36C7.34,731.53,0,724.19,0,715.17v-8.91
							c0-9.02,7.34-16.36,16.36-16.36h365.15c2.11,0,4.1,1,5.36,2.69l8.41,11.31c1.12,1.51,2.84,2.37,4.72,2.37c0,0,0,0,0,0
							c1.88,0,3.6-0.86,4.72-2.37l8.41-11.3c1.26-1.7,3.24-2.69,5.36-2.69h365.15c9.03,0,16.36,7.34,16.36,16.36v8.91
							c0,9.03-7.34,16.36-16.36,16.36H435.97C431.62,744.43,415.07,752.95,400,752.95z M16.36,703.24c-1.66,0-3.01,1.35-3.01,3.01
							v8.91c0,1.66,1.35,3.01,3.01,3.01H369.6c3.69,0,6.68,2.99,6.68,6.68c0,7.3,11.98,14.74,23.73,14.74
							c11.75,0,23.72-7.44,23.72-14.74c0-3.69,2.99-6.68,6.68-6.68h353.23c1.66,0,3.01-1.35,3.01-3.01v-8.91
							c0-1.66-1.35-3.01-3.01-3.01H421.84l-6.41,8.61c-3.67,4.93-9.29,7.75-15.43,7.75c0,0,0,0,0,0c-6.14,0-11.76-2.83-15.43-7.75
							l-6.41-8.61H16.36z"/>
					</g>
				</g>
				<g>
					<rect x="122.57" y="588.87" class="st2" width="50" height="13.35"/>
					<rect x="122.57" y="564.79" class="st2" width="50" height="13.35"/>
					<rect x="122.57" y="413.84" class="st2" width="50" height="13.35"/>
					<rect x="122.57" y="389.75" class="st2" width="50" height="13.35"/>
				</g>
				<g>
					<rect x="627.42" y="588.87" class="st2" width="50" height="13.35"/>
					<rect x="627.42" y="564.79" class="st2" width="50" height="13.35"/>
					<rect x="627.42" y="413.84" class="st2" width="50" height="13.35"/>
					<rect x="627.42" y="389.75" class="st2" width="50" height="13.35"/>
				</g>
			</g>
		</g>
	</g>
	<polygon class="st2" points="50.74,256.57 147.59,256.57 400,107.09 653.89,263.07 744.91,257.35 403.62,54.65 	"/>
</g>
<g id="Layer_2">
	<circle class="st2" cx="403.62" cy="191.86" r="30.63"/>
	<path class="st2" d="M288.13,628.3V360.13h224.35V628.3l-46.96-1.57c0,0,13.04-118.43-7.83-150.78S407.61,453,393,453
		s-56.35,19.3-56.87,63.13s-1.04,112.17-1.04,112.17H288.13z"/>
	<rect x="142.3" y="260.87" class="st2" width="517.7" height="41.95"/>
	<rect x="115.3" y="420.51" class="st2" width="64.57" height="150.95"/>
	<rect x="620.14" y="420.51" class="st2" width="64.57" height="150.95"/>
</g>
</svg>
