<svg id="Layer_1" data-name="Layer 1" xmlns="http://www.w3.org/2000/svg" viewBox="0 0 90 90"><defs><style>.cls-1{fill:#004e7e;}</style></defs><path class="cls-1" d="M28.92,65H3c-.12,0-.24,0-.36,0A.6.6,0,0,1,2,64.22c.07-.27.17-.54.26-.81l5-15c.42-1.25.83-2.51,1.25-3.76a1.36,1.36,0,0,1,1.32-1H61.94a2.59,2.59,0,0,1,.56,0,.53.53,0,0,1,.35.85.44.44,0,0,0-.05.15c0,.22-.08.45-.15.67L56.43,64a1.39,1.39,0,0,1-.78.92,2.31,2.31,0,0,1-.47.11,1.4,1.4,0,0,1-.29,0Z"/><path class="cls-1" d="M27.83,42.08V8.59c0-.69.14-.82.83-.82H69.05c.62,0,.81.2.81.81q0,10.52,0,21a.88.88,0,0,1-.31.73q-5.64,5.1-11.26,10.22l-1.5,1.37a.62.62,0,0,1-.46.18H27.83Zm34.79-8.15V19.76a122.94,122.94,0,0,0-29.2,0V33.94A122.42,122.42,0,0,0,62.62,33.93Z"/><path class="cls-1" d="M8.68,67.12H56.56a2.07,2.07,0,0,0,.61-.06,1.29,1.29,0,0,0,.88-.93l1.53-4.88q1.53-4.92,3.08-9.84a.4.4,0,0,1,.12-.22v31a.58.58,0,0,1-.14,0h-.33q-26.22,0-52.45,0a1,1,0,0,1-1.19-1.19q0-6.76,0-13.54Z"/><path class="cls-1" d="M73.9,43.34h7.73a1.2,1.2,0,0,1,1.3,1l2.61,10.22c.8,3.13,1.59,6.26,2.39,9.39a2.47,2.47,0,0,1,.06.29.66.66,0,0,1-.66.79,1.76,1.76,0,0,1-.23,0H71.66A1.36,1.36,0,0,1,70.32,64q-1.83-7.25-3.69-14.49c-.44-1.72-.87-3.43-1.31-5.14a1.88,1.88,0,0,1,0-.33.64.64,0,0,1,.66-.69h8Z"/><path class="cls-1" d="M65.34,52.88c0,.1.07.19.1.29l2.91,10.44c.23.82.47,1.64.68,2.46a1.36,1.36,0,0,0,1.39,1.05c3.59,0,7.19,0,10.78,0h.45c0,.12,0,.21,0,.31q0,6.9,0,13.8a1,1,0,0,1-1,1c-5,0-10.06,0-15.08,0h-.29V52.89Z"/><path class="cls-1" d="M25.86,42.07H21.11V8.46a.5.5,0,0,1,.56-.54h1.57c.67,0,1.34,0,2,0a.57.57,0,0,1,.62.61V42.07Z"/><path class="cls-1" d="M73.85,29.73l2.24,2.54a1.81,1.81,0,0,0-.25.19q-5.34,4.7-10.67,9.4a.84.84,0,0,1-.61.23H60l0,0s0,0,0,0l4-3.52Z"/><path class="cls-1" d="M76.94,33.25l2.28,2.58L79,36l-6.62,5.83a.89.89,0,0,1-.64.25H67C67.13,41.84,75.53,34.38,76.94,33.25Z"/><path class="cls-1" d="M75.28,28.57l5.35-2.16,2.73,3.09-2.82,5Z"/><path class="cls-1" d="M86.34,24.17l-2.28,4.07L82,25.86l4.32-1.74Z"/><path class="cls-1" d="M48.05,23.46H60.11a.85.85,0,0,1,.8.81.84.84,0,0,1-.67.91,1.46,1.46,0,0,1-.36,0H36.15a1.46,1.46,0,0,1-.36,0,.87.87,0,0,1,.14-1.72H48.05Z"/><path class="cls-1" d="M48,29.25H36.14a1.72,1.72,0,0,1-.46,0,.87.87,0,0,1-.56-.94.85.85,0,0,1,.75-.74,3.62,3.62,0,0,1,.46,0h23.4a3.46,3.46,0,0,1,.46,0,.87.87,0,0,1,.73.91.85.85,0,0,1-.83.81,2.8,2.8,0,0,1-.29,0Z"/></svg>