<?xml version="1.0" encoding="utf-8"?>
<!-- Generator: Adobe Illustrator 27.6.1, SVG Export Plug-In . SVG Version: 6.00 Build 0)  -->
<svg version="1.1" id="Layer_1" xmlns="http://www.w3.org/2000/svg" xmlns:xlink="http://www.w3.org/1999/xlink" x="0px" y="0px"
	 viewBox="0 0 800 800" style="enable-background:new 0 0 800 800;" xml:space="preserve">
<style type="text/css">
	.st0{fill:#004987;}
</style>
<g>
	<g>
		<path class="st0" d="M309.9,779.2c0-21.9,7.39-41.25,18.48-52.45h-96.84c-17.11,0-31.13,21.68-31.13,48.17v1.42
			c0,8.46,1.54,16.31,4.06,23.24h107.44c-1.24-5.86-2.01-12.05-2.01-18.53V779.2z"/>
	</g>
</g>
<g>
	<g>
		<path class="st0" d="M531.53,776.33v-1.42c0-26.49-14.02-48.17-31.11-48.17H328.37c-11.09,11.21-18.48,30.56-18.48,52.45v1.84
			c0,6.48,0.77,12.67,2.01,18.53h215.59C530,792.65,531.53,784.79,531.53,776.33z"/>
	</g>
</g>
<g>
	<g>
		<path class="st0" d="M256.97,715.6v-36.58c12.43,0,254.14-0.04,259.78-0.11c42.93-1.51,79.42-31.4,92.63-76.14
			c25.41-86.07-41.21-169.54-112.03-218.97l20.93-29.99c81.27,56.7,157.09,154.61,126.18,259.31
			c-17.74,60.09-67.5,100.26-126.75,102.34C515.11,715.57,259.54,715.6,256.97,715.6z"/>
	</g>
</g>
<g>
	<g>
		<rect x="291.83" y="324.05" class="st0" width="163.18" height="198.96"/>
	</g>
</g>
<g>
	<g>
		<rect x="313.61" y="538.03" class="st0" width="119.63" height="45.05"/>
	</g>
</g>
<g>
	<g>
		<polygon class="st0" points="638.6,98.39 539.98,26.35 559.25,0 657.86,72.02 		"/>
	</g>
</g>
<g>
	<g>
		<rect x="342.08" y="324.05" class="st0" width="112.94" height="198.96"/>
	</g>
</g>
<g>
	<g>
		<rect x="358.43" y="538.03" class="st0" width="74.81" height="45.05"/>
	</g>
</g>
<g>
	<g>
		<polygon class="st0" points="436.61,430.4 291.83,324.64 514.96,66.58 613.25,138.38 		"/>
	</g>
</g>
<g>
	<g>
		<polygon class="st0" points="436.61,430.4 342.08,361.35 543.17,87.19 613.25,138.38 		"/>
	</g>
</g>
<g>
	<g>
		<path class="st0" d="M489.49,277.09c0,22.23-18.01,40.24-40.23,40.24c-22.22,0-40.24-18.01-40.24-40.24
			c0-22.21,18.02-40.23,40.24-40.23C471.48,236.86,489.49,254.88,489.49,277.09L489.49,277.09z"/>
	</g>
</g>
<g>
	<g>
		<path class="st0" d="M389.86,316.61c0,13.2-10.69,23.89-23.88,23.89s-23.89-10.69-23.89-23.89c0-13.19,10.7-23.88,23.89-23.88
			S389.86,303.42,389.86,316.61L389.86,316.61z"/>
	</g>
</g>
<g>
	<g>
		<path class="st0" d="M474.66,277.09c0,14.04-11.37,25.41-25.41,25.41c-14.03,0-25.41-11.37-25.41-25.41
			c0-14.02,11.38-25.4,25.41-25.4C463.29,251.7,474.66,263.07,474.66,277.09L474.66,277.09z"/>
	</g>
</g>
<g>
	<g>
		<rect x="298.82" y="650.48" class="st0" width="149.22" height="19.16"/>
	</g>
</g>
<g>
	<g>
		<path class="st0" d="M140.64,490.81c0,7.88-6.39,14.26-14.25,14.26c-7.88,0-14.28-6.38-14.28-14.26c0-7.88,6.39-14.27,14.28-14.27
			C134.26,476.54,140.64,482.93,140.64,490.81z"/>
	</g>
</g>
<g>
	<g>
		<path class="st0" d="M227.97,443c0,7.88-6.38,14.25-14.25,14.25c-7.88,0-14.27-6.38-14.27-14.25c0-7.88,6.39-14.27,14.27-14.27
			C221.59,428.73,227.97,435.11,227.97,443z"/>
	</g>
</g>
<g>
	<g>
		<path class="st0" d="M194.53,528.03c0,11.65-9.45,21.1-21.08,21.1c-11.66,0-21.12-9.45-21.12-21.1c0-11.64,9.46-21.09,21.12-21.09
			C185.09,506.94,194.53,516.38,194.53,528.03z"/>
	</g>
</g>
<g>
	<g>
		<path class="st0" d="M156.79,290.56c0,7.88-6.39,14.25-14.25,14.25c-7.88,0-14.27-6.38-14.27-14.25c0-7.88,6.39-14.27,14.27-14.27
			C150.41,276.29,156.79,282.67,156.79,290.56z"/>
	</g>
</g>
<g>
	<g>
		<path class="st0" d="M298.7,87.19c0,3.79-3.07,6.87-6.86,6.87c-3.8,0-6.88-3.08-6.88-6.87c0-3.79,3.08-6.86,6.88-6.86
			C295.63,80.32,298.7,83.39,298.7,87.19z"/>
	</g>
</g>
<g>
	<g>
		<path class="st0" d="M378.3,634.56c0,3.79-3.07,6.87-6.86,6.87c-3.8,0-6.88-3.08-6.88-6.87c0-3.79,3.08-6.86,6.88-6.86
			C375.22,627.7,378.3,630.77,378.3,634.56z"/>
	</g>
</g>
<g>
	<g>
		<path class="st0" d="M582.86,317.33c0,3.79-3.07,6.87-6.86,6.87c-3.8,0-6.88-3.08-6.88-6.87c0-3.79,3.08-6.86,6.88-6.86
			C579.79,310.46,582.86,313.53,582.86,317.33z"/>
	</g>
</g>
</svg>
