<svg id="Layer_1" data-name="Layer 1" xmlns="http://www.w3.org/2000/svg" viewBox="0 0 41.05 43.96"><defs><style>.cls-1{fill:#004e7e;}</style></defs><path class="cls-1" d="M25.74,38.89h-3.6c-.17,0-.19,0-.23-.17a8.6,8.6,0,0,1-.15-.86c-.12-.93-.19-1.86-.24-2.79l-.06-1a.35.35,0,0,0-.1-.26,39.83,39.83,0,0,1-3.73-5,20.79,20.79,0,0,1-1.56-2.95,9.1,9.1,0,0,1-.6-2,5.67,5.67,0,0,1-.05-1.17,11.36,11.36,0,0,1,.15-1.43,10,10,0,0,1,2-4.51,10.2,10.2,0,0,1,6.11-3.8,9.91,9.91,0,0,1,2.37-.2,10.33,10.33,0,0,1,9.69,7.77,11.59,11.59,0,0,1,.3,2,7.15,7.15,0,0,1-.56,3.2,19.74,19.74,0,0,1-1.54,3,39.64,39.64,0,0,1-3.82,5.1A.42.42,0,0,0,30,34c-.05.87-.1,1.74-.17,2.61,0,.53-.11,1.07-.18,1.6a3.86,3.86,0,0,1-.1.49c0,.14,0,.15-.2.15Zm.16-24.13h0l-1,.07a10.29,10.29,0,0,0-2,.38,6.91,6.91,0,0,0-4,3,8.68,8.68,0,0,0-1.1,2.7,9.09,9.09,0,0,0-.23,2.2.84.84,0,0,0,1.67,0,7.7,7.7,0,0,1,.12-1.35,7.37,7.37,0,0,1,.81-2.38,5.2,5.2,0,0,1,2.83-2.45,8.31,8.31,0,0,1,2.42-.47c.28,0,.56,0,.84,0a.84.84,0,0,0,0-1.68Z" transform="translate(-5 -3.22)"/><path class="cls-1" d="M8.72,20.46h1.85a1.79,1.79,0,0,1,1.45.67,1.85,1.85,0,0,1-1.13,3,1.51,1.51,0,0,1-.3,0q-1.87,0-3.75,0a1.84,1.84,0,0,1-.11-3.68c.63,0,1.25,0,1.88,0Z" transform="translate(-5 -3.22)"/><path class="cls-1" d="M42.7,19.53h1.5a1.85,1.85,0,0,1,.2,3.68l-.32,0H41.22a1.85,1.85,0,0,1-1.8-1.36A1.83,1.83,0,0,1,41,19.56a2.58,2.58,0,0,1,.29,0Z" transform="translate(-5 -3.22)"/><path class="cls-1" d="M22.83,6.58V5.06a1.84,1.84,0,0,1,3.66-.28,1.33,1.33,0,0,1,0,.28v3a1.85,1.85,0,0,1-3.69,0C22.82,7.59,22.83,7.08,22.83,6.58Z" transform="translate(-5 -3.22)"/><path class="cls-1" d="M12.09,8.43A1.66,1.66,0,0,1,13.22,9q1,1,2,2a1.85,1.85,0,0,1-2.51,2.7,1.14,1.14,0,0,1-.11-.11l-2-1.95a1.85,1.85,0,0,1,1.47-3.15Z" transform="translate(-5 -3.22)"/><path class="cls-1" d="M37.67,8.42a1.86,1.86,0,0,1,1.26,3.11l-.11.11c-.63.63-1.25,1.27-1.89,1.89a1.84,1.84,0,0,1-3.12-1A1.7,1.7,0,0,1,34.29,11c.67-.69,1.34-1.36,2-2A1.87,1.87,0,0,1,37.67,8.42Z" transform="translate(-5 -3.22)"/><path class="cls-1" d="M25.75,40.25h3.56a.82.82,0,0,1,.22,0,.53.53,0,0,1,.4.47,1.82,1.82,0,0,1,0,.33.54.54,0,0,1-.5.5H22.19a.74.74,0,0,1-.26,0,.52.52,0,0,1-.38-.48,1.22,1.22,0,0,1,0-.27.54.54,0,0,1,.52-.54h3.68Z" transform="translate(-5 -3.22)"/><path class="cls-1" d="M25.74,44.38H22.15a.69.69,0,0,1-.45-.16.89.89,0,0,1,0-1,.65.65,0,0,1,.37-.16h7.38a.55.55,0,0,1,.48.51,1.61,1.61,0,0,1,0,.31.55.55,0,0,1-.52.51H25.74Z" transform="translate(-5 -3.22)"/><path class="cls-1" d="M25.75,45.85h.86a.56.56,0,0,1,.58.57v.25a.56.56,0,0,1-.51.51H24.87a.63.63,0,0,1-.46-.2,1,1,0,0,1,0-.93.64.64,0,0,1,.44-.2Z" transform="translate(-5 -3.22)"/></svg>