<svg id="Layer_1" data-name="Layer 1" xmlns="http://www.w3.org/2000/svg" viewBox="0 0 38 42.57"><defs><style>.cls-1{fill:#004e7e;}</style></defs><path class="cls-1" d="M13.42,26.08l-.09-.1L7,19.75a4,4,0,0,1-.78-.92A1.88,1.88,0,0,1,6,18a1.13,1.13,0,0,1,.28-.79,1.54,1.54,0,0,1,1.64-.54,2.11,2.11,0,0,1,1,.56l7.18,7,1.13,1.1a.36.36,0,0,0,.35.13l1.47-.16c.51-.05,1-.1,1.52-.13,1.33-.06,2.66-.14,4-.17,1,0,2.05,0,3.07,0,.53,0,1.05,0,1.57.05,1,0,1.89.1,2.83.17.7.05,1.4.12,2.1.2.9.12,1.8.25,2.69.39a27,27,0,0,1,3.18.7,12.79,12.79,0,0,1,2.46.92,4.23,4.23,0,0,1,1.08.74A1.26,1.26,0,0,1,44,29a2.28,2.28,0,0,1,0,.58c-.34,1.54-.7,3.08-1.05,4.62-.23,1-.47,2.06-.7,3.1-.06.28-.08.57-.14.85a9.24,9.24,0,0,1-1.75,3.72,9.59,9.59,0,0,1-5.6,3.61c-.63.15-1.26.24-1.89.33s-1.53.2-2.29.28c-.44.05-.89.09-1.33.12a41.38,41.38,0,0,1-4.59.11c-1,0-2-.1-2.94-.17-.74-.06-1.49-.14-2.23-.23a17.81,17.81,0,0,1-2.19-.34,9.94,9.94,0,0,1-5.49-3.61,9.84,9.84,0,0,1-1.82-3.59c-.08-.3-.11-.61-.17-.92s-.16-.7-.24-1C9,34.1,8.5,31.83,8,29.57A3.07,3.07,0,0,1,7.93,29a1,1,0,0,1,.18-.56,2.08,2.08,0,0,1,.58-.6,6.74,6.74,0,0,1,1.39-.77,20.16,20.16,0,0,1,3.13-.95l.18,0Zm7.74,3-.13,0-3.4.93a.19.19,0,0,1-.21-.06l-.81-.8L15.38,28a.22.22,0,0,0-.24-.08c-.11,0-.23,0-.35.06a22.06,22.06,0,0,0-2.75.58,5.32,5.32,0,0,0-1.26.52,2.08,2.08,0,0,0-.4.32.44.44,0,0,0,0,.6,1.46,1.46,0,0,0,.36.34,6.4,6.4,0,0,0,.82.43,15.59,15.59,0,0,0,2.83.84,45.07,45.07,0,0,0,5.77.84c.91.08,1.83.14,2.74.18,1.25,0,2.5.08,3.75.06,1.48,0,2.95-.07,4.42-.19.7-.06,1.4-.12,2.09-.2.9-.12,1.79-.25,2.68-.4a21.31,21.31,0,0,0,3-.72,7.58,7.58,0,0,0,1.58-.67,2.33,2.33,0,0,0,.53-.42.5.5,0,0,0,0-.78,1.71,1.71,0,0,0-.47-.34,9.47,9.47,0,0,0-1-.4,19.46,19.46,0,0,0-3.29-.7c-1.22-.18-2.45-.31-3.69-.4-.83-.06-1.67-.11-2.5-.14-1.15,0-2.29-.07-3.44-.08-1.79,0-3.58,0-5.38.11l-1.31.08a3.08,3.08,0,0,0-.38,0Z" transform="translate(-6 -3.71)"/><path class="cls-1" d="M31.65,20.74a1.29,1.29,0,0,1,.59-1.13,5.47,5.47,0,0,0,1.25-1.15,3.64,3.64,0,0,0,.6-1,2.18,2.18,0,0,0,0-1.7,4.46,4.46,0,0,0-.87-1.28c-.32-.34-.64-.68-.92-1a6.54,6.54,0,0,1-1.31-3,7,7,0,0,1,.15-3,8.56,8.56,0,0,1,1.73-3.31,1.25,1.25,0,0,1,1-.49,1.23,1.23,0,0,1,1.18.73,1.25,1.25,0,0,1-.15,1.39,6.74,6.74,0,0,0-.72,1A5.23,5.23,0,0,0,33.52,9a4.15,4.15,0,0,0,.59,2.5,5.7,5.7,0,0,0,.84,1,7.15,7.15,0,0,1,1.48,2.06,4.8,4.8,0,0,1,.44,2.33,5.34,5.34,0,0,1-.76,2.36,7.81,7.81,0,0,1-2.43,2.49,1.3,1.3,0,0,1-2-.79C31.66,20.9,31.66,20.8,31.65,20.74Z" transform="translate(-6 -3.71)"/><path class="cls-1" d="M27.28,3.89a1.24,1.24,0,0,1,1.07.72A1.25,1.25,0,0,1,28.22,6c-.13.18-.28.35-.41.54a5.73,5.73,0,0,0-.92,2.15,4.09,4.09,0,0,0,.66,3.2,6.51,6.51,0,0,0,.75.9,7,7,0,0,1,1.24,1.62,4.83,4.83,0,0,1,.1,4.62,7.26,7.26,0,0,1-2,2.44,6.05,6.05,0,0,1-.72.53,1.3,1.3,0,0,1-1.38-2.21,5.85,5.85,0,0,0,1.33-1.25,3.55,3.55,0,0,0,.51-.86,2.14,2.14,0,0,0,0-1.77,4.42,4.42,0,0,0-.94-1.32,8.26,8.26,0,0,1-1.54-2.08,6.34,6.34,0,0,1-.67-3.42,8.22,8.22,0,0,1,2-4.73A1.31,1.31,0,0,1,27.28,3.89Z" transform="translate(-6 -3.71)"/><path class="cls-1" d="M20.46,3.71a1.27,1.27,0,0,1,1.19.74,1.24,1.24,0,0,1-.17,1.41,6.77,6.77,0,0,0-.83,1.27,5,5,0,0,0-.55,2.08,3.93,3.93,0,0,0,.45,2,5.17,5.17,0,0,0,1,1.34A7.3,7.3,0,0,1,23,14.47a4.85,4.85,0,0,1,.48,2.65,5.25,5.25,0,0,1-.74,2.16,7.81,7.81,0,0,1-2.42,2.5,1.31,1.31,0,1,1-1.44-2.18,5.8,5.8,0,0,0,1.33-1.24,3.63,3.63,0,0,0,.55-1,2.15,2.15,0,0,0,0-1.56,3.86,3.86,0,0,0-.83-1.24,13.84,13.84,0,0,1-1-1.15,6.8,6.8,0,0,1-1.31-3.12,7,7,0,0,1,.2-2.84,8.52,8.52,0,0,1,1.7-3.25,1.3,1.3,0,0,1,.76-.47Z" transform="translate(-6 -3.71)"/></svg>