<svg id="Layer_1" data-name="Layer 1" xmlns="http://www.w3.org/2000/svg" viewBox="0 0 48 36.93"><defs><style>.cls-1{fill:#004e7e;}</style></defs><path class="cls-1" d="M34.83,34H36.5c0-.12,0-.21-.06-.3-.39-1.47-.79-2.93-1.18-4.4l-1.65-6.14a1,1,0,0,1,0-.38c.26-1.4.5-2.79.75-4.19l.15-.82a1,1,0,0,0,0-.18,6.58,6.58,0,0,0-.88,0l-.12.6c-.3,1.56-.59,3.11-.89,4.67a.73.73,0,0,0,0,.36l1.74,6.54c.29,1.1.59,2.2.88,3.3,0,.07,0,.15,0,.24H34c-.17,0-.18,0-.19.18,0,.39,0,.78,0,1.17,0,1.11-.07,2.22-.11,3.33s-.08,2.34-.13,3.51a2.22,2.22,0,0,1-.34,1.07,1.61,1.61,0,0,1-1.71.71,1.58,1.58,0,0,1-1.23-.9A2.06,2.06,0,0,1,30,41.21c0-.53,0-1.06,0-1.59,0-1.49.07-3,.1-4.46v-.61a3.75,3.75,0,0,0-1,0,2.17,2.17,0,0,0,0,.25l-.15,3.67c0,1-.08,2-.14,3A2.4,2.4,0,0,1,28.08,43a1.67,1.67,0,0,1-2.62-.44,2.88,2.88,0,0,1-.24-1.48c0-.4.05-.8.07-1.2.05-1.07.1-2.15.16-3.23,0-.36.05-.73.05-1.09,0-.59,0-1.18,0-1.77,0,0,0,0,0-.08l-1.27-.16a1.2,1.2,0,0,1,0-.19c.33-1.68.69-3.35,1-5s.79-3.41,1.21-5.11a.9.9,0,0,0,0-.4c-.21-1.29-.44-2.59-.66-3.88-.06-.38-.12-.76-.19-1.14a1.67,1.67,0,0,0-.06-.24l-.89.06c.05.34.09.65.14,1,.21,1.31.4,2.63.63,3.94a2.49,2.49,0,0,1-.09,1.24c-.25.84-.5,1.69-.72,2.55-.16.65-.28,1.31-.42,2-.39,1.89-.77,3.78-1.16,5.67l-.07.37c.52.08,1,.08,1.54.15a.36.36,0,0,1,0,.1c0,.7-.05,1.39-.07,2.09,0,.44-.05.89-.07,1.33,0,.94-.07,1.89-.11,2.83,0,.35,0,.71-.08,1.06a1.53,1.53,0,0,1-.13.43,1.51,1.51,0,0,1-1.32,1,2.59,2.59,0,0,1-1-.08,1.44,1.44,0,0,1-1.09-1.53c0-.27,0-.54,0-.82,0-1.48.07-3,.11-4.44l.09-3.6L21,29.07,21,28a3,3,0,0,0,0-.3c-.52,0-1,0-1.55,0a2.45,2.45,0,0,0,0,.25q0,4.26,0,8.52c0,1.32,0,2.63,0,3.95,0,.4,0,.8,0,1.2a2.27,2.27,0,0,1-.27,1.07,1.4,1.4,0,0,1-1.2.77,1.76,1.76,0,0,1-1.9-1.19,2.18,2.18,0,0,1-.17-1.1c0-.42,0-.85.06-1.27,0-1,.07-1.9.11-2.85l.09-2a1.37,1.37,0,0,1,0-.16h1.1c-.05-.29-.09-.55-.14-.81q-.68-3.72-1.36-7.44l-.69-3.83a.49.49,0,0,1,0-.24c.21-1.34.43-2.67.65-4,0-.31.09-.62.15-.95h-.78l-.09.34c-.33,1.48-.66,3-1,4.44a1,1,0,0,0,0,.38l1.47,7.72c.23,1.19.45,2.38.68,3.58q0,.11,0,.24H15.13c0,.12,0,.22,0,.32,0,1,0,1.92.05,2.88l.06,4.15A1.4,1.4,0,0,1,14.41,43a2.24,2.24,0,0,1-1.44.2,1.28,1.28,0,0,1-.64-.31,1.86,1.86,0,0,1-.65-1.35l-.09-3.9c0-1-.05-2-.07-3,0-.07,0-.15,0-.24a4.12,4.12,0,0,0-.86,0,.83.83,0,0,0,0,.13,1.76,1.76,0,0,0,0,.23c0,2.23,0,4.47,0,6.7a1.86,1.86,0,0,1-2.34,1.84,1.19,1.19,0,0,1-.83-.6,2.29,2.29,0,0,1-.36-1.16C7,40.42,7,39.34,7,38.26l-.12-3.69c0-.06,0-.12,0-.2l-1.95-.1a1.6,1.6,0,0,1,0-.23c.38-1.81.76-3.61,1.15-5.42.42-2,.86-4.05,1.27-6.07a2.31,2.31,0,0,0,0-.74c-.19-1.32-.39-2.63-.58-3.95,0-.18-.09-.3-.28-.34A3.72,3.72,0,0,1,6,17.37c0,.1,0,.17-.07.25q-1.09,4-2.2,7.94a1.33,1.33,0,0,1-1.61,1l-.16,0a1.07,1.07,0,0,1-.86-.92,3.29,3.29,0,0,1,0-.94,12.36,12.36,0,0,1,.56-2.33c.4-1.28.78-2.56,1.19-3.83.26-.79.56-1.58.86-2.36a5.83,5.83,0,0,1,.68-1.28,3,3,0,0,1,1.45-1.15,8.16,8.16,0,0,1,2.29-.5c.53,0,1.07-.05,1.61-.08l.17,0v-.71a1.71,1.71,0,0,1-.23-.13A3,3,0,0,1,8,9.45a3,3,0,0,1,3.2-2.91,2.94,2.94,0,0,1,2.67,1.81,3,3,0,0,1-.42,3.19,2.77,2.77,0,0,1-1,.83.26.26,0,0,0-.19.29,3,3,0,0,1,0,.43l.26,0,4.62,0h1.23a1.7,1.7,0,0,0,0-.55c0-.05-.08-.11-.13-.14s-.31-.16-.45-.25a3.07,3.07,0,1,1,4.74-2.9,3,3,0,0,1-1.51,3,.35.35,0,0,0-.22.37,3.72,3.72,0,0,1,0,.48c.46,0,.91,0,1.36,0H27.7a2.47,2.47,0,0,0,0-.66s-.08-.08-.12-.11l-.37-.23a3.07,3.07,0,1,1,3.17.22l-.23.12c0,.17,0,.33,0,.5a.78.78,0,0,0,0,.14h6.68a1.85,1.85,0,0,0,0-.62c0-.06-.1-.12-.17-.16a3.08,3.08,0,1,1,3.6-4.92,3,3,0,0,1,.89,1.8,3.06,3.06,0,0,1-1.73,3.18.21.21,0,0,0-.14.24v.5l.29,0,2.49,0a6.06,6.06,0,0,1,1.88.34,2.87,2.87,0,0,1,1.31.94,9.34,9.34,0,0,1,1.34,2.41,26.39,26.39,0,0,1,.94,3c.29,1.08.57,2.16.86,3.24.13.48.31.95.45,1.42a2.46,2.46,0,0,1-.07,1.65,1,1,0,0,1-.73.61,1.42,1.42,0,0,1-1.79-1c-.27-.86-.52-1.73-.78-2.6l-1.67-5.57a.49.49,0,0,0-.24-.33c-.16-.09-.31-.19-.46-.29L43,16.88c0,.3-.06.58-.08.86-.08.81-.15,1.62-.22,2.43,0,.15,0,.29,0,.43,0,1,0,2,0,3,0,1.48,0,3,.05,4.44s0,3.06,0,4.58,0,2.9,0,4.35,0,3,0,4.51a3.44,3.44,0,0,1-.06.72,1.37,1.37,0,0,1-1.06,1.06,2.26,2.26,0,0,1-1.21,0A1.48,1.48,0,0,1,39.36,42c0-.15,0-.31,0-.47V28.05h-.88c0,.1,0,.2,0,.3,0,1.33,0,2.67-.07,4l-.09,4.16c0,1.6-.1,3.19-.14,4.78a2.74,2.74,0,0,1-.25,1.19,1.82,1.82,0,0,1-2.41.79,1.44,1.44,0,0,1-.7-.72,2,2,0,0,1-.2-.94c.05-1.55.1-3.11.16-4.66,0-.92.07-1.85.1-2.77C34.81,34.13,34.82,34.07,34.83,34Z" transform="translate(-1 -6.53)"/></svg>