<?xml version="1.0" encoding="utf-8"?>
<!-- Generator: Adobe Illustrator 27.6.1, SVG Export Plug-In . SVG Version: 6.00 Build 0)  -->
<svg version="1.1" id="Layer_1" xmlns="http://www.w3.org/2000/svg" xmlns:xlink="http://www.w3.org/1999/xlink" x="0px" y="0px"
	 viewBox="0 0 800 800" style="enable-background:new 0 0 800 800;" xml:space="preserve">
<style type="text/css">
	.st0{fill:#004987;}
</style>
<g>
	<g>
		<g id="c14_house">
			<path class="st0" d="M108.77,709.05c0,0-0.73,17,16.76,17c21.77,0,114.31-0.23,114.31-0.23l0.3-273.52
				c0,0-2.85-25.87,23.55-25.87h258.38c31.25,0,29.34,25.87,29.34,25.87l-0.36,273.03c214.28,0,126.94,0,110.07,0
				c22.19,0,21.19-21.15,21.19-21.15V414.55L404.09,179.34L108.77,414.58C108.77,414.58,108.77,709.05,108.77,709.05z"/>
			<path class="st0" d="M0,392.68c0,0,25.04,43.91,79.76,0l326.82-262.81l306.39,261.17c63.3,43.39,87.03,0,87.03,0L406.58,52.3
				L0,392.68z"/>
			<polygon class="st0" points="705.51,129.26 626.72,129.26 627.06,220.11 705.51,283.42 			"/>
		</g>
		<g id="Capa_1_216_">
		</g>
	</g>
	<g>
		<circle class="st0" cx="368.81" cy="520.54" r="43.85"/>
		<path class="st0" d="M327.73,673.35l-9.43-17.2c-0.31-0.57-0.38-1.24-0.19-1.86l8.82-28.82c0.39-1.27,1.73-1.98,3-1.59
			c1.27,0.39,1.98,1.73,1.59,3L323,654.73l11.64,21.23c2.77,1.19,5.34,2.46,7.64,3.83c13.97,8.33,21.58,16.72,25.72,23.17
			c0.93-1.45,1.96-2.89,3.08-4.3c5.43-6.81,13.05-13.15,22.63-18.87c2.86-1.71,6.15-3.29,9.76-4.71l11.15-20.32l-9.23-27.82
			c-0.46-1.38,0.41-2.89,1.92-3.13c1.18-0.19,2.31,0.61,2.68,1.74l9.52,28.69c0.21,0.63,0.15,1.33-0.17,1.91l-9.08,16.56
			c3.14-0.97,6.49-1.85,10.18-2.66c6.34-1.39,12.77-2.34,18.7-2.99c1.37-0.15,2.56-1.02,3.1-2.28l1.17-2.71
			c2.82-6.48,2.88-13.94,0.16-20.49l-21.87-52.38c-4.73-11.33-15.72-18.65-27.99-18.65h-49.79c-12.27,0-23.26,7.32-27.99,18.65
			l-21.87,52.38c-2.72,6.54-2.66,14.01,0.16,20.48l2.15,4.95c6.82,0.73,13.25,1.74,19.18,3.04
			C319.89,670.98,323.96,672.09,327.73,673.35L327.73,673.35z"/>
		<path class="st0" d="M530.42,600.57c0-19.07-15.51-34.58-34.58-34.58c-19.07,0-34.58,15.51-34.58,34.58
			c0,19.07,15.51,34.58,34.58,34.58C514.9,635.15,530.42,619.64,530.42,600.57z"/>
		<path class="st0" d="M518.81,652.86c-1.77-7.38-8.31-12.71-15.9-12.76c-14.14-0.1-27.17,7.56-33.96,19.96l-1.68,2.95
			c-0.66,1.16,0.18,2.61,1.52,2.63c2.53,0.03,4.01,0.09,4.1,0.1c0.83,0.04,1.59,0.5,1.99,1.23s0.4,1.62-0.01,2.34
			c-0.06,0.1-5.43,9.73-8.41,20.29h33.6l-6.43-27.5c-0.33-1.42,0.67-2.84,2.19-2.95c1.19-0.08,2.24,0.81,2.51,1.98l7.1,30.32
			c0.17,0.71,0,1.46-0.46,2.04c-0.46,0.57-1.15,0.91-1.88,0.91h-60.84c-2.96,0-5.89,1.01-8.02,3.06c-2.4,2.3-3.6,5.43-3.38,8.73
			c0.38,5.77,5.43,10.29,11.49,10.29h77.7c3.39,0,6.53-1.52,8.63-4.18c2.12-2.66,2.89-6.08,2.11-9.37L518.81,652.86z"/>
		<path class="st0" d="M426.07,706.51c-0.31-4.61,1.33-8.99,4.6-12.26c3.08-3.09,7.37-4.64,11.73-4.64h19.11
			c1.71-6.53,4.31-12.72,6.32-16.98c0.48-1.03-0.26-2.2-1.39-2.2c-0.97,0-2.04,0-3.2,0.01c-2.96,0.04-5.66,0.12-8.25,0.24
			c-8.5,0.37-21.21,1.37-33.52,4.06c-5.26,1.15-9.83,2.44-13.98,3.95c-4.28,1.55-8.08,3.31-11.31,5.23
			c-9.09,5.42-16.27,11.38-21.33,17.73c-1.88,2.36-3.46,4.79-4.7,7.22c-0.41,0.8-1.24,1.31-2.14,1.31c0,0,0,0,0,0
			c-0.9,0-1.73-0.51-2.14-1.32c-3.12-6.16-10.16-15.48-26.03-24.94c-3.25-1.93-7.06-3.69-11.32-5.23
			c-4.21-1.53-8.91-2.85-13.97-3.95c-9.75-2.13-21.33-3.54-33.5-4.06c-3.37-0.15-6.42-0.22-9-0.25c-2.26-0.02-3.77,2.3-2.84,4.37
			c3.51,7.83,7.97,20.06,6.95,29.95c-0.18,1.72,0.99,3.29,2.71,3.49l75.49,8.79c0.85,0.1,1.6,0.63,1.92,1.42
			c2.81,6.9,11.37,10.16,18.9,5.26c1.81-1.18,2.91-3.09,3.73-5.09c0.33-0.81,1.08-1.37,1.94-1.47l43.66-5.09
			c1.41-0.16,2.34-1.53,1.99-2.9C426.27,708.29,426.13,707.41,426.07,706.51L426.07,706.51z"/>
	</g>
	<rect y="752.01" class="st0" width="800" height="17.61"/>
</g>
</svg>
