<svg id="Layer_1" data-name="Layer 1" xmlns="http://www.w3.org/2000/svg" viewBox="0 0 90 90"><defs><style>.cls-1{fill:#004e7e;}</style></defs><path class="cls-1" d="M45.82,55.45H44.07c0,.16,0,.29,0,.42,0,1.37,0,2.73,0,4.1,0,2.83,0,5.67-.08,8.5,0,2.21,0,4.42-.08,6.62,0,1.49-.09,3-.14,4.47,0,.88-.05,1.76-.08,2.63a3.82,3.82,0,0,1-2.45,3.36A3.27,3.27,0,0,1,37,83.72a4.33,4.33,0,0,1-.46-2.1c0-1.14,0-2.28.07-3.42,0-2.08.09-4.16.08-6.24,0-2.74-.06-5.47-.09-8.2,0-1.7,0-3.39-.08-5.08s0-3.49-.07-5.23,0-3.38-.08-5.08,0-3.48-.07-5.22,0-3.39-.08-5.08-.05-3.48-.07-5.23-.05-3.33-.08-5a.4.4,0,0,0-.06-.25,1.51,1.51,0,0,0-.09.18c-.88,2.38-1.78,4.74-2.63,7.13a22.69,22.69,0,0,0-.59,2.33l-2.28,9.66a1.76,1.76,0,0,1-.32.66,4.79,4.79,0,0,1-1,1,2.73,2.73,0,0,1-4.28-1.84,4,4,0,0,1,0-1.71c.85-3.33,1.64-6.67,2.52-10A50.92,50.92,0,0,1,30,27.2a16.41,16.41,0,0,1,2.62-4.29,10.7,10.7,0,0,1,5.45-3.29,6.71,6.71,0,0,1,1.35-.1l2.33-.09.42-.05a1.46,1.46,0,0,0,0-.21c-.07-.78-.16-1.57-.22-2.36a.47.47,0,0,0-.28-.39,6.53,6.53,0,0,1-3.27-4.52,6.62,6.62,0,1,1,13-2.48,6.54,6.54,0,0,1-3.2,7,.55.55,0,0,0-.33.62c.07.67.09,1.35.14,2a3,3,0,0,0,0,.4l1.46.07c.57,0,1.14,0,1.69.08a12.55,12.55,0,0,1,3.29.9l.51.24a6.39,6.39,0,0,1,2.54,2.35,25.72,25.72,0,0,1,2.1,4.32c.77,2,1.35,4.06,2,6.11q1.66,5.3,3.39,10.59a5.27,5.27,0,0,1,.23,2.19A7.54,7.54,0,0,1,65,47.58a2.61,2.61,0,0,1-3.3,1.78A3.2,3.2,0,0,1,59.85,48a.51.51,0,0,1-.1-.24,67,67,0,0,0-1.7-6.51C56.72,36.82,55.36,32.4,54,28a1.16,1.16,0,0,0-.2-.4c0,.45,0,.89,0,1.34,0,1.68,0,3.36,0,5,0,1.87-.05,3.73-.08,5.6s-.05,3.71-.07,5.57-.05,3.76-.08,5.64,0,3.68-.07,5.53,0,3.78-.08,5.68,0,3.66-.07,5.49,0,3.83-.08,5.75c-.07,2.46-.19,4.91-.28,7.36,0,.66,0,1.31-.09,2a4.31,4.31,0,0,1-.6,2A2.81,2.81,0,0,1,50,86a4.42,4.42,0,0,1-1.09,0,3.19,3.19,0,0,1-2.7-2.35A5.66,5.66,0,0,1,46,81.82c0-.91,0-1.81,0-2.71l0-4.78c0-2.85,0-5.69,0-8.54l-.06-8.24C45.81,56.86,45.82,56.17,45.82,55.45Z"/></svg>