<svg id="Layer_1" data-name="Layer 1" xmlns="http://www.w3.org/2000/svg" viewBox="0 0 90 90"><defs><style>.cls-1{fill:#004e7e;}</style></defs><path class="cls-1" d="M35.75,59.07H34c0,.15,0,.29,0,.44,0,2.39,0,4.78,0,7.17a2.56,2.56,0,0,1-.44,1.47,1.7,1.7,0,0,1-1.8.67A1.33,1.33,0,0,1,30.9,68a3.14,3.14,0,0,1-.28-1.35c0-1.41,0-2.81,0-4.22,0-1,0-2,0-3v-.43c-.53,0-1.05,0-1.56,0H27.58a1.73,1.73,0,0,1,0-.33c.21-1.56.43-3.13.65-4.69s.43-3.13.65-4.7c.25-1.76.49-3.52.74-5.28.22-1.57.43-3.15.65-4.73.1-.74.2-1.48.32-2.23a.89.89,0,0,0-.22-.83,9,9,0,0,1-1.28-2.05c-1.2-2.28-2.24-4.64-3.26-7-.05-.13-.11-.27-.2-.47a1.9,1.9,0,0,0-.11.27Q23.6,32.6,21.68,38.17c-.17.5-.34,1-.52,1.51a1.08,1.08,0,0,0-.05.54c.25,1.81.48,3.63.72,5.45l.81,5.93.72,5.46.39,2.85c0,.14,0,.29.05.48H20.59v1.23c0,.19,0,.37,0,.56,0,1.48,0,2.95,0,4.43a3.93,3.93,0,0,1-.17,1.23,1.3,1.3,0,0,1-1.38,1,1.38,1.38,0,0,1-1.36-1.2,3.15,3.15,0,0,1-.06-.61V60.41H16v.41c0,2,0,3.95,0,5.92a2.56,2.56,0,0,1-.18,1,1.58,1.58,0,0,1-1.59,1,1.25,1.25,0,0,1-1-.65,2.62,2.62,0,0,1-.38-1.39c0-.64,0-1.29,0-1.93l0-4v-.37H9.61c.06-.46.12-.88.18-1.3.3-1.9.59-3.81.88-5.71s.63-4.06.95-6.09.61-4,.92-6c.15-1,.3-1.94.46-2.91a.81.81,0,0,0-.26-.79,49,49,0,0,1-3.54-3.8C7.56,31.82,5.93,29.88,4.3,28l-.48-.54A1.26,1.26,0,0,1,3.56,26a2,2,0,0,1,.13-.25,1.28,1.28,0,0,1,2-.41,2.73,2.73,0,0,1,.44.39c2.3,2.53,4.6,5.05,6.89,7.59a.69.69,0,0,0,.63.25c.53,0,1.07-.06,1.61-.09.06-.41.06-.42-.26-.54a4.05,4.05,0,0,1-2.51-3.17,3,3,0,0,1,.62-2.48,4,4,0,0,1,5.69-1,3.86,3.86,0,0,1-.65,6.6l-.35.16,0,.48,2.4.35A36,36,0,0,1,21.58,30c.45-1.26.94-2.51,1.38-3.77.33-1,.62-1.93.93-2.9A1,1,0,0,1,24,23.2a5.1,5.1,0,0,0,.44-1.08,1.11,1.11,0,0,1,1.39-.59,1.9,1.9,0,0,1,1.3,1.15c.36.8.67,1.62,1,2.42.66,1.47,1.35,2.93,2,4.4l.95,2c.06.13.12.25.19.38l2.54-.37.07-.5-.29-.14a4.09,4.09,0,0,1,.88-7.76,4,4,0,0,1,3.34.86,4.73,4.73,0,0,1,1,1,3.56,3.56,0,0,1,.27,3.74l-.19.36a3.85,3.85,0,0,1-2.08,1.85c-.34.13-.33.14-.32.58l.57,0c.28,0,.57,0,.86.05a.39.39,0,0,0,.44-.23l2.91-4.63,2.87-4.54a2.3,2.3,0,0,1,.75-.8,1.22,1.22,0,0,1,1.4,0,1.59,1.59,0,0,1,.8,1.48.91.91,0,0,0,0,.33l4.11,11.69.08.2L53.16,35l-.08-.68a4,4,0,0,1-2.37-2.2,3.83,3.83,0,0,1-.17-2.54,3.9,3.9,0,0,1,7.56.11,4,4,0,0,1-2.44,4.59l0,.4,0,.43,1.43.19.11-.22q2.5-6.18,5-12.35a1.85,1.85,0,0,0,.15-.39,1.14,1.14,0,0,1,1.49-.75A1.92,1.92,0,0,1,65.2,22.7c.33.75.62,1.52,1,2.27.71,1.57,1.44,3.14,2.17,4.71.34.73.69,1.46,1,2.2l2.55-.37L72,31l-.29-.14a4,4,0,0,1-2.44-3.71,4,4,0,0,1,3.59-4.08,4.18,4.18,0,0,1,3.26,1,4.06,4.06,0,0,1,1.1,1.27,3.34,3.34,0,0,1,.12,3,8.16,8.16,0,0,1-.62,1.12A3.5,3.5,0,0,1,75,30.86l-.38.16,0,.44,2.07.28.21-.26L83.58,23a3.37,3.37,0,0,1,.71-.7,1.25,1.25,0,0,1,1.75.2,1.65,1.65,0,0,1,.51,1.11,1.43,1.43,0,0,1-.3.86l-3,4.12c-1.37,1.89-2.76,3.79-4.28,5.57-.43.5-.9,1-1.36,1.43a4.7,4.7,0,0,1-.54.44A2.67,2.67,0,0,0,77.14,37q.57,3.86,1.16,7.7.51,3.29,1,6.57c.26,1.76.53,3.51.79,5.27.17,1.13.35,2.26.52,3.39,0,.08,0,.16,0,.27H77.43c0,.13,0,.23,0,.33,0,1.84,0,3.67.07,5.51A3.1,3.1,0,0,1,77,68a1.62,1.62,0,0,1-1.84.71A1.57,1.57,0,0,1,74,67.59a2.94,2.94,0,0,1-.14-.88c0-2,0-4,0-6v-.41a6.55,6.55,0,0,0-1.73,0c0,.11,0,.23,0,.36q0,3,0,6a2.68,2.68,0,0,1-.27,1.21,1.67,1.67,0,0,1-1.66,1,1.22,1.22,0,0,1-1-.58,2.56,2.56,0,0,1-.4-1.45c0-1.94,0-3.87.05-5.81v-.77H65.66c0-.35.07-.65.11-1,.27-2.09.55-4.19.83-6.28.33-2.53.67-5,1-7.58.29-2.19.57-4.37.86-6.56l.27-2a.38.38,0,0,0-.08-.35,7.21,7.21,0,0,1-1.12-1.62c-1-1.69-1.75-3.46-2.54-5.23-.39-.86-.76-1.73-1.14-2.6l-.14-.32-.11.18q-2.45,6.2-4.9,12.39a2,2,0,0,0-.12,1c.14,1.22.25,2.45.37,3.68l.39,3.79c.13,1.22.25,2.43.37,3.65l.39,3.82c.13,1.22.25,2.44.37,3.65.09.83.17,1.66.25,2.48a2.82,2.82,0,0,1,0,.31h-3v1.2c0,1.3,0,2.59,0,3.88a2.34,2.34,0,0,1-.46,1.36,1.2,1.2,0,0,1-2.09-.21A2.79,2.79,0,0,1,55,66.72c0-1.55,0-3.1,0-4.65v-.39H53.36v1.26l0,3.26c0,.23,0,.46,0,.69a1.59,1.59,0,0,1-1.12,1.54,1.19,1.19,0,0,1-1.47-.52,2.48,2.48,0,0,1-.42-1.37V61.66H47.3c0-.16,0-.27,0-.38.15-1.25.3-2.5.44-3.75s.3-2.54.46-3.81c.17-1.46.34-2.91.52-4.37.15-1.25.29-2.5.44-3.75.18-1.46.35-2.93.52-4.4,0-.37.1-.75.13-1.13a1.25,1.25,0,0,0-.07-.43q-1.34-4-2.69-7.9c-.57-1.69-1.15-3.38-1.72-5.08a3.26,3.26,0,0,1-.13-.33c-.11.17-.18.29-.25.42-1.26,2.22-2.55,4.42-4,6.54-.44.66-.92,1.28-1.39,1.91a1.58,1.58,0,0,1-.36.37.84.84,0,0,0-.31,1c.13.89.28,1.77.42,2.66q.48,2.94.94,5.88.45,2.73.88,5.47L42,55.45c.18,1.09.35,2.18.53,3.28,0,.09,0,.18,0,.31H39.3c0,.41,0,.77,0,1.14,0,.7,0,1.41,0,2.11,0,1.43,0,2.86,0,4.3a2.32,2.32,0,0,1-.87,1.81,1.65,1.65,0,0,1-2.29-.26,2.21,2.21,0,0,1-.45-1.4c0-.8,0-1.61,0-2.42v-5C35.76,59.23,35.75,59.16,35.75,59.07Z"/></svg>