<svg id="Layer_1" data-name="Layer 1" xmlns="http://www.w3.org/2000/svg" viewBox="0 0 90 90"><defs><style>.cls-1{fill:#004e7e;}</style></defs><path class="cls-1" d="M20.46,30.59,19.92,32c-.67,1.81-1.36,3.61-2,5.43-.35,1-.62,2.09-.92,3.14-.16.51-.29,1-.46,1.55a38.37,38.37,0,0,0-.9,4.26c-.17.83-.31,1.67-.47,2.51a.86.86,0,0,1-.12.35,3.33,3.33,0,0,1-2.32,1.58,2.53,2.53,0,0,1-2.65-1.5,3.63,3.63,0,0,1-.18-2.28c1-3.83,1.88-7.66,2.85-11.49a16.57,16.57,0,0,1,.85-2.32c.59-1.43,1.19-2.84,1.82-4.25a11.56,11.56,0,0,1,2.28-3.42,8.73,8.73,0,0,1,4.48-2.39,24.09,24.09,0,0,1,3.69-.41l.56,0v-.43c0-.64,0-1.27,0-1.91a.51.51,0,0,0-.3-.5,6.07,6.07,0,0,1-3.05-4.22,6.29,6.29,0,0,1,5.26-7.47,6.35,6.35,0,0,1,7.08,5,6.26,6.26,0,0,1-2.94,6.57l-.42.25v2.66l.36,0c1.15.09,2.3.14,3.45.27a8.23,8.23,0,0,1,2.83.82,4.78,4.78,0,0,1,1.91,1.66,27.16,27.16,0,0,1,2.13,3.89,22.58,22.58,0,0,1,.86,2.43L48.22,46.5a4.68,4.68,0,0,1,.09,2A4.32,4.32,0,0,1,48,49.64a2.36,2.36,0,0,1-2.61,1.64,2.9,2.9,0,0,1-2.23-1.35,1.05,1.05,0,0,1-.13-.35c-.12-.47-.21-.95-.36-1.41C42,46,41.39,43.7,40.84,41.44c-.88-3.62-2.05-7.15-3.25-10.67a.49.49,0,0,0-.14-.2,2.51,2.51,0,0,0,0,.27c0,1.47,0,2.93,0,4.4,0,1.75,0,3.51-.08,5.26s-.05,3.28-.07,4.92c0,2.41-.05,4.82-.08,7.22s-.05,4.86-.07,7.3c0,2-.05,3.9-.08,5.86,0,1.39,0,2.78-.08,4.17,0,2.34-.12,4.68-.19,7l-.18,5.26a5.52,5.52,0,0,1-.48,2.15,2.87,2.87,0,0,1-4.65.69A5,5,0,0,1,30,81.62c0-2.45,0-4.89,0-7.34q0-4.08-.08-8.16L29.85,58V57a13,13,0,0,0-1.65,0c0,.32,0,.62,0,.91,0,2.3,0,4.59-.05,6.88,0,2.49,0,5-.08,7.45s-.09,4.66-.15,7c0,1-.08,2.1-.13,3.15A3.8,3.8,0,0,1,27.28,84a3.27,3.27,0,0,1-3.87,1.64,2.91,2.91,0,0,1-1.78-1.46A4.18,4.18,0,0,1,21,82q0-3.78,0-7.56c0-2.29,0-4.59,0-6.88,0-1.43,0-2.86,0-4.29s0-3.16-.05-4.74c0-1.79-.05-3.58-.07-5.37s-.05-3.38-.08-5.08,0-3.48-.07-5.22,0-3.38-.08-5.07-.05-3.49-.07-5.23c0-.65,0-1.3-.06-1.95Zm9.62,3.81.85-.89a19,19,0,0,0,2.43-3.09A5.06,5.06,0,0,0,33.94,29a2.25,2.25,0,0,0-.48-2.11,1.34,1.34,0,0,0-1.94-.22,6.75,6.75,0,0,0-.84.85c-.16.18-.3.39-.46.61L30.06,28a3.54,3.54,0,0,0-1.78-1,1.06,1.06,0,0,0-1.29.65,2.1,2.1,0,0,0-.18,1,4.44,4.44,0,0,0,.48,1.76A19.24,19.24,0,0,0,30,34.31S30,34.35,30.08,34.4Z"/><path class="cls-1" d="M74.42,70.62H69.13c0,.11,0,.2,0,.29L69,76.72l-.12,4.41a4.7,4.7,0,0,1-.56,2.17,2.77,2.77,0,0,1-3.47,1.17,2.26,2.26,0,0,1-1.19-1.22,4.26,4.26,0,0,1-.36-1.8V70.65h-3c0,.4,0,.8,0,1.19-.07,1.65-.13,3.3-.19,5s-.08,3.12-.14,4.68a3.69,3.69,0,0,1-.15.94,2.62,2.62,0,0,1-2.27,2,3.73,3.73,0,0,1-1.66,0,2.16,2.16,0,0,1-1.45-1.25,3.67,3.67,0,0,1-.31-1.63c0-1,0-2,0-3.08,0-1.65,0-3.31.07-5,0-.8,0-1.6,0-2.4v-.38H48.51c0-.14,0-.25.06-.35q1.35-5.41,2.69-10.82c.78-3.14,1.58-6.28,2.33-9.43.36-1.47.62-3,.93-4.45.12-.58.22-1.17.36-1.74a2.53,2.53,0,0,0,0-1c-.26-2.29-.53-4.58-.79-6.87-.15-1.29-.29-2.58-.43-3.87,0-.08,0-.15-.07-.29a3.13,3.13,0,0,0-.14.33c-.78,2.1-1.58,4.2-2.33,6.32a19.88,19.88,0,0,0-.54,2.15q-1,4.37-2.06,8.72a2.13,2.13,0,0,1-.61.94,2.65,2.65,0,0,1-2.26.92,2.29,2.29,0,0,1-2-1.44,3.2,3.2,0,0,1-.18-2.07c.66-2.67,1.3-5.34,2-8a54.57,54.57,0,0,1,2.72-8.06,15.59,15.59,0,0,1,2.21-3.84,7.53,7.53,0,0,1,5.17-3c1-.15,2.06-.27,3.09-.39a4.21,4.21,0,0,1,.5,0s0-.05,0-.07a2,2,0,0,0-.12-.74c-.12-.19-.39-.28-.6-.41A6.66,6.66,0,0,1,55.67,20a6.42,6.42,0,0,1,.62-6A6.32,6.32,0,0,1,61,11a6.87,6.87,0,0,1,3.69.5,4.49,4.49,0,0,1,2,1.74,8.09,8.09,0,0,1,1.23,3.48,7.44,7.44,0,0,1-.1,2.66A5.32,5.32,0,0,1,64.86,23l-.45.23.11,1.26c.52,0,1,.09,1.52.15a22.78,22.78,0,0,1,3.08.41,14.33,14.33,0,0,1,1.71.58,5.36,5.36,0,0,1,2.4,2.17,17.82,17.82,0,0,1,1.56,3.34c.85,2.22,1.51,4.49,2.23,6.75C78,41,79,44.08,80,47.15a4.67,4.67,0,0,1,.09,2.67,2.44,2.44,0,0,1-2.4,1.82,2.21,2.21,0,0,1-1.33-.48,4.49,4.49,0,0,1-1.65-2.33c-.56-2-1.16-4-1.72-5.95-.39-1.4-.74-2.82-1.1-4.23-.52-2-1.19-4-1.85-6a3,3,0,0,0-.35-.73l-.12.71c-.33,2.19-.65,4.37-1,6.56-.19,1.29-.39,2.57-.58,3.86a1.83,1.83,0,0,0,0,.57c.2,1.26.38,2.53.63,3.78.2,1,.48,2,.73,3l4.17,16.47c.29,1.15.58,2.3.88,3.45C74.38,70.39,74.39,70.48,74.42,70.62ZM62.72,35.68c.2-.23.39-.41.54-.62.74-1,1.49-2,2.22-3a12,12,0,0,0,.7-1.05,1.82,1.82,0,0,0,0-2.09,1.46,1.46,0,0,0-2.06-.48,8.93,8.93,0,0,0-.87.6,7.81,7.81,0,0,0-.55.59l-.21-.23A2.82,2.82,0,0,0,61,28.48a1,1,0,0,0-1,.36,1.77,1.77,0,0,0-.42,1.07,3.8,3.8,0,0,0,.29,1.56,11.2,11.2,0,0,0,1.15,2A25,25,0,0,0,62.72,35.68Z"/><path class="cls-1" d="M72.09,8.68a1.4,1.4,0,0,1-.22.44q-1.16,1.07-2.34,2.1a.64.64,0,0,1-1-.66.75.75,0,0,1,.23-.37l2.2-2a.65.65,0,0,1,.76-.11A.7.7,0,0,1,72.09,8.68Z"/><path class="cls-1" d="M52,8.7a.63.63,0,0,1,.33-.6.66.66,0,0,1,.68,0,1.81,1.81,0,0,1,.21.18l2,1.82a.91.91,0,0,1,.21.23.64.64,0,0,1-.07.81.66.66,0,0,1-.82.1l-.18-.15L52.27,9.24A.73.73,0,0,1,52,8.7Z"/><path class="cls-1" d="M62.66,5.92c0,.4,0,.8,0,1.19a.63.63,0,0,1-.7.66.58.58,0,0,1-.59-.58c0-.86,0-1.71,0-2.57A.62.62,0,0,1,62,4a.63.63,0,0,1,.65.61c0,.39,0,.78,0,1.16v.14Z"/><path class="cls-1" d="M68,6.21a.92.92,0,0,1-.08.3c-.47.68-1,1.36-1.44,2a.6.6,0,0,1-.75.11A.61.61,0,0,1,65.42,8a.85.85,0,0,1,.13-.31c.42-.6.83-1.19,1.27-1.78a.64.64,0,0,1,1.05,0A2,2,0,0,1,68,6.21Z"/><path class="cls-1" d="M58.49,7.41a.67.67,0,0,1-.38.64.61.61,0,0,1-.7-.1,1.15,1.15,0,0,1-.21-.27l-.81-1.43a1.27,1.27,0,0,1-.07-.12.66.66,0,0,1,.25-.89.65.65,0,0,1,.89.25c.25.4.47.81.7,1.22l.22.38C58.43,7.21,58.46,7.33,58.49,7.41Z"/></svg>