<?xml version="1.0" encoding="utf-8"?>
<!-- Generator: Adobe Illustrator 27.1.1, SVG Export Plug-In . SVG Version: 6.00 Build 0)  -->
<svg version="1.1" id="Layer_1" xmlns="http://www.w3.org/2000/svg" xmlns:xlink="http://www.w3.org/1999/xlink" x="0px" y="0px"
	 viewBox="0 0 800 800" style="enable-background:new 0 0 800 800;" xml:space="preserve">
<style type="text/css">
	.st0{fill-rule:evenodd;clip-rule:evenodd;fill:#004E7E;}
</style>
<path class="st0" d="M489.01,88.33c8.7-1.94,13.73-0.62,22.11-3.01l0,0c14.58-0.01,27.6,5.3,38.69,9.42
	c18.61,6.91,37.86,12.77,55.78,18.72c42.95,14.25,87.74,25.35,129.64,39.19c18.54,6.12,37.99,8.13,54.56,15.75
	c0.44,0.2,0.74,0.63,0.79,1.12c0.29,3.19,0.58,6.39,0.87,9.58c0.04,0.43-0.16,0.84-0.49,1.12c-1.98,1.65-3.46,4.27-5.48,5.61
	c-7.37,4.89-17.47,5.57-24.12,11.05c-9.6,7.93-15.07,32.06-15.07,50.25c0,8.77-0.88,21.38,2.9,26.97c0.07,0.11,0.16,0.21,0.26,0.3
	c12.15,10.61,34.16,9.15,47.41,17.78c5.5,3.58,4.8,11.9-1.25,14.45c-0.71,0.3-1.41,0.57-2.1,0.8c-8.74,2.86-21.64,1.88-28.78,6.78
	c-0.25,0.17-0.47,0.4-0.64,0.66l0,0c-0.77,1.17-0.39,2.7,0.79,3.46c7.03,4.55,8.85,15.26,11.55,24.28
	c9.15,30.57,3.89,75.95-10.05,98.49c-4.62,7.46-15.83,15.42-19.1,22.11c0.34,0,0.67,0,1,0c5.46,4.57,16.35,2.64,19.1,10.05
	c7.23,12.47-23.33,18.93-29.15,24.12c-15.22,13.59-19.8,49.72-14.21,77.7c0.09,0.44,0.38,0.8,0.79,0.98
	c19.21,8.28,41.58,11.48,55.13,25.32c0.45,0.46,0.49,1.28,0.08,1.79l0,0c-0.53,0.5-1.05,0.99-1.59,1.49
	c-10,6.65-45.01,10.57-58.29,14.33c-31.92,9.03-64.59,13.13-96.06,23.16c-10.36,3.3-20.03,4.8-30.57,7.99
	c-39.32,11.91-82.85,16.36-122.61,29.14c-21.48,6.91-45.89,11.88-68.27,18.07c-0.04,0.01-0.09,0.01-0.13,0.03
	c-7.04,2.56-11.99,3.8-19.19,5.76c-0.36,0.1-3.99,0.92-4.35,1.02c-11.36,3.2-29.32,7.71-39.71,9.29
	c-2.56,0.39-28.94-10.5-33.16-12.06c-28.5-10.52-58.44-18-86.43-28.14c-44.41-16.09-91.51-26.59-134.67-44.22
	c-17.4-7.11-39.07-7.83-53.26-18.09c-14.53-10.5-18.29-27.52-24.12-47.23c-4.26-14.41-10.16-39.93-5.02-59.29
	c2.59-9.77,5.05-22.13,10.05-30.15c3.18-5.1,8.82-7.82,11.06-14.07c-0.34,0-0.46,1.14-1.01,0c-0.14-0.3,0-0.67,0-1.01
	c-9.58-0.1-16.15-3.33-21.1-8.04c0-0.34-0.24-0.77,0-1c0.24-0.24,0.67,0,1,0c5.95-8.24,22.88-14.63,33.16-18.09
	c7.78-2.62,20.11-1.77,23.12-9.04c3.14-4.96,2-19.41,2.01-26.13c0.03-22.95-6.31-43.88-19.95-53.16c-0.1-0.07-0.2-0.12-0.31-0.16
	c-6.26-2.31-12.51-4.61-18.77-6.91c-0.11-0.04-0.21-0.09-0.3-0.15c-2.56-1.67-3.99-4.64-5.95-6.95c-0.6-0.71-0.94-1.59-0.94-2.52
	l0-1.31c0-1.99,0.82-3.76,2.25-4.95c2.34-1.95,4.67-4.13,7.8-5.28c8.39-3.1,24.43-1.61,27.75-9.81c0.26-0.65-0.05-1.4-0.69-1.69
	c-10.1-4.64-12.76-20.13-17.01-30.71c-15.79-39.33-9.02-98.6,19.1-118.59c8.77-6.23,18.36-4.88,31.15-8.04 M422.42,97.43
	c0.18-0.04,0.36-0.06,0.54-0.06h8.51 M166.65,134.5 M363.39,368.72c1-31.51,1.99-63.03,2.99-94.54c0.02-0.56-0.31-1.08-0.83-1.3
	c-19.44-8.16-41.11-11.59-61.45-19.74c-55.77-22.34-116.56-37.35-172.81-58.27c-0.03-0.01-0.07-0.02-0.1-0.03
	c-8.34-2.33-16.68-4.67-25.02-7c-0.03-0.01-0.07-0.02-0.1-0.03c-19.43-7.15-41.02-16.83-51.21,7.05
	c-11.21,26.28-1.31,71.88,11.05,88.44c5.14,6.88,14.7,6.13,24.12,9.04c15.93,4.93,33.38,8.48,50.25,14.07
	c34.86,11.56,72.79,20.75,107.48,32.14c0.04,0.01,0.07,0.02,0.11,0.03c14.37,3.34,28.74,6.68,43.11,10.02
	c0.03,0.01,0.07,0.02,0.1,0.03c15.84,5.19,33.26,8.5,50.2,14.05C348.29,364.99,353.85,368.38,363.39,368.72L363.39,368.72z
	 M587.5,318.47c46.9-13.39,95.57-24.2,143.97-36c0.49-0.12,0.87-0.5,1-0.98c0.63-2.36,0.79-5.61,0.76-8.95
	c0-0.2-0.06-0.39-0.16-0.57c-1.82-3.28,0.06-9.27-0.85-13.81c-4.31-21.47,4.25-40.04,8.61-56.6c0.23-0.86-0.43-1.69-1.31-1.69
	l-1.62,0c-0.43,0-0.8,0.24-1.22,0.34c-8.65,2.17-14.44,1.67-21.55,3.68c-21.21,5.99-46.35,7.41-68.34,14.07
	c-21.48,6.51-46.15,8.65-68.34,14.6c-9.68,2.6-18.43,2.99-28.14,5.5c-54.98,14.19-110.92,22.64-167.07,35.01
	c-0.47,0.1-0.86,0.44-1.01,0.9c-2.77,8.68-1,22.9-0.76,32.43c0.46,17.47-3.04,41.04-3.02,62.31l0,0 M482.98,343.59 M441.78,465.2
	c0.67,18.09,1.34,36.18,2.01,54.27l0,0c9.43,0.05,15.27-3.73,22.11-6.03c16.98-5.7,34.18-8.75,50.25-14.07
	c48.34-16,99.24-25.71,146.73-41.2c18.26-5.96,36.77-9.71,54.27-15.07c10.25-3.14,19.61-2.53,25.12-10.05
	c13.84-18.89,21.3-70.42,6.03-94.47c-1.35-2.12-3.56-3.51-5.61-5.02c-1.61-1.18-3.42-2.06-5.34-2.61
	c-3.26-0.93-5.99-2.38-10.15-1.42c-11.03,2.54-21.95,7.63-32.16,11.06c-15.13,5.08-29.71,8.49-43.21,14.07
	c-12.4,5.12-24.21,6.7-37.18,11.06c-35.19,11.8-74.11,22.08-107.72,35.91c-15.46,6.36-31.91,11.53-47.37,16.05
	c-5.05,1.47-15.88,2.08-18.56,5.99c-0.14,0.21-0.2,0.46-0.2,0.71l0,16.12 M315.15,401.88c-32.94-8.92-69.62-12.88-102.45-22.09
	c-0.04-0.01-0.08-0.02-0.13-0.03c-11.68-2-23.36-4-35.05-6.01c-0.04-0.01-0.08-0.02-0.12-0.03c-21.77-6.1-45.33-7.89-68.28-14.05
	c-13.4-3.6-28.43-7.82-43.22-9.04l0,0c1.6,8.72,6.73,18.05,9.01,27.97c0.03,0.11,0.04,0.23,0.04,0.35
	c-0.33,17.33-0.65,34.66-0.98,51.99c-0.01,0.64,0.42,1.2,1.05,1.34c53.06,12.21,108.2,25.56,159.73,40.96
	c10.67,3.19,18.95,4.59,29.67,7.65c14.5,4.13,31.42,7.17,45.63,11.42c0.05,0.02,0.11,0.03,0.16,0.04c7.99,1.33,15.98,2.66,23.97,4
	c0.05,0.01,0.09,0.02,0.14,0.03c22.21,6.31,46.02,10.02,69.28,17.07c7.52,2.28,13.98,5.34,23.66,5.96c0.79,0.05,1.45-0.6,1.42-1.39
	c-0.98-30.68-1.96-61.38-2.94-92.06c-0.02-0.57-0.39-1.06-0.92-1.24c-0.71-0.24-1.41-0.47-2.12-0.71 M339.27,670.22
	c0.99-31.76,1.99-63.53,2.98-95.28c0.02-0.68-0.47-1.26-1.15-1.37c-6.75-1.17-13-4.9-18.91-6.86
	c-20.37-6.76-40.42-11.56-59.29-19.09c-7.74-3.09-14.03-3.34-22.11-6.03c-23.81-7.94-49.92-16.5-73.36-25.12
	c-11.22-4.13-20.95-4.89-32.16-9.05c-24.76-9.17-50.85-20.61-77.38-27.13c-5.25-1.29-9.51,0.16-13.34,1.53
	c-2.24,0.8-4.23,2.18-5.76,4.01c-4.23,5.06-8.78,10.68-11.05,18.58c-6.9,23.95,1.93,64.57,12.06,78.39
	c10.89,14.87,50.39,15.94,70.35,23.11c32.59,11.72,70.32,20.32,103.46,31.13c0.04,0.01,0.08,0.02,0.12,0.03
	c12.01,2.67,24.03,5.34,36.04,8.01c0.05,0.01,0.1,0.03,0.15,0.04c18.06,6.47,37.72,10.04,57.21,16.05
	C317.18,664.28,326.59,669.48,339.27,670.22L339.27,670.22z M488.8,546.67 M512.97,543.61 M581.62,527.49
	c-0.1,0.01-0.2,0.03-0.29,0.06 M432.16,558.75c-0.28-0.06-0.58-0.06-0.86-0.02c-23.65,3.88-48.36,10.29-72.2,15.84
	c-0.45,0.11-0.83,0.44-0.95,0.89c-1.28,4.64-0.87,12.17-0.79,18.04c0,0.22-0.06,0.43-0.16,0.63c-2.84,5.21-0.82,18.89-0.83,25.84
	c-0.05,16.15-2.09,32.11-2.01,50.25l0,0c16.46-3.54,26.09-5.37,37.18-9.05c14.71-4.87,30.28-7.07,44.22-11.05
	c61.27-17.53,125.47-25.91,184.92-45.23c20.92-6.8,41.81-11.6,62.31-16.08c8.13-1.78,15.98-2.26,23.31-4.94
	c0.19-0.07,1.98-1.35,1.98-1.35c0.76-1.32,0.82-3.01,0.84-5.38c0-0.25-0.58-2.92-0.61-3.17c-0.9-6.78-1.39-12.01-1.4-18.33
	c-0.01-11.59-1-23.85,2.01-33.17c1.94-6.02,5.24-11.3,6.59-18.12c0.3-1.54-0.91-2.96-2.48-2.87"/>
</svg>
