<svg id="Layer_1" data-name="Layer 1" xmlns="http://www.w3.org/2000/svg" viewBox="0 0 90 90"><defs><style>.cls-1{fill:#004e7e;}</style></defs><path class="cls-1" d="M59.31,10.72c0-.42,0-.85.1-1.27A1.84,1.84,0,0,1,60.66,7.9a5.27,5.27,0,0,1,1.1-.3,11.07,11.07,0,0,1,2.93,0,2,2,0,0,1,1.9,1.91c.06.54.09,1.08.12,1.62a3.17,3.17,0,0,0,1.45,2.58,15.5,15.5,0,0,0,3.19,1.76,4.68,4.68,0,0,0,1,.24,2.3,2.3,0,0,0,2-.82c.26-.29.49-.61.75-.91a6.91,6.91,0,0,1,.79-.83A1.73,1.73,0,0,1,78,12.89a5.32,5.32,0,0,1,1.09.79c.58.58,1.11,1.21,1.65,1.83a4,4,0,0,1,.42.65,1.69,1.69,0,0,1,0,1.66,7.39,7.39,0,0,1-.76,1.07c-.34.4-.72.77-1.09,1.15a2.13,2.13,0,0,0-.51,2.31c.33,1,.69,1.91,1,2.85a6.27,6.27,0,0,0,.29.58,2.8,2.8,0,0,0,2.19,1.47c.35.05.71.06,1.07.08s.75,0,1.12,0a1.47,1.47,0,0,1,1.48.92,3.51,3.51,0,0,1,.33,1.23,11.6,11.6,0,0,1-.08,3.33,1.93,1.93,0,0,1-1.43,1.6c-.56.16-1.15.23-1.72.35s-.87.16-1.29.27a2.44,2.44,0,0,0-1.51,1.17c-.17.31-.31.62-.46.94L79,39c-.08.19-.16.37-.23.56a2,2,0,0,0,.41,2.26c.35.37.72.71,1.08,1.08a9.12,9.12,0,0,1,.72.8A1.88,1.88,0,0,1,81.13,46a7.21,7.21,0,0,1-3.08,2.81,2.05,2.05,0,0,1-2.64-.51c-.13-.15-.27-.29-.4-.45a3.23,3.23,0,0,0-2.84-1.14,7.24,7.24,0,0,0-4.59,2.21,3.47,3.47,0,0,0-.93,2c-.08.59-.13,1.19-.2,1.78,0,.1,0,.2-.06.3a1.13,1.13,0,0,1-.86.86c-.36.09-.73.14-1.1.2-.6.09-1.2.2-1.8.26a7.12,7.12,0,0,1-1.38.06,1.74,1.74,0,0,1-1.77-1.81c0-.64,0-1.28-.09-1.92a5.27,5.27,0,0,0-.21-1.26,2.58,2.58,0,0,0-1.45-1.53,6.3,6.3,0,0,0-.72-.28q-1.09-.36-2.19-.69a2.63,2.63,0,0,0-1.66-.1,3.72,3.72,0,0,0-1,.47c-.42.29-.8.63-1.21.93a7.71,7.71,0,0,1-.82.59,2.05,2.05,0,0,1-2.6-.1,8.91,8.91,0,0,1-2.23-2.43,4.73,4.73,0,0,1-.31-.64,1.85,1.85,0,0,1,.24-1.83,9.26,9.26,0,0,1,.79-.87c.22-.23.47-.43.68-.66a2.77,2.77,0,0,0,.5-3.31l-1.37-2.71a3.06,3.06,0,0,0-.3-.49A1.58,1.58,0,0,0,44.48,35c-.54-.09-1.09-.15-1.64-.2a5.64,5.64,0,0,1-1.9-.42A2.21,2.21,0,0,1,39.64,33a2.24,2.24,0,0,1-.1-.63,14.31,14.31,0,0,1,.38-3.45,1.6,1.6,0,0,1,1.62-1.3,10.5,10.5,0,0,1,1.48.09,2.28,2.28,0,0,0,2.34-1.1A8.28,8.28,0,0,0,46,25.33a16.42,16.42,0,0,1,.91-1.89,8.61,8.61,0,0,0,.56-1.19,2,2,0,0,0-.29-1.92,7.47,7.47,0,0,0-.64-.75c-.31-.34-.65-.65-.95-1A2.4,2.4,0,0,1,45,16.32,2.59,2.59,0,0,1,45.86,15c.79-.68,1.6-1.32,2.4-2a3.05,3.05,0,0,1,.5-.28,1.13,1.13,0,0,1,1.3.15c.28.24.54.51.8.77s.58.6.88.89a4.05,4.05,0,0,0,.57.43,2.25,2.25,0,0,0,1.74.36,14.51,14.51,0,0,0,3.28-1,4.26,4.26,0,0,0,.87-.52,2.72,2.72,0,0,0,1.14-2.23c0-.27,0-.54,0-.81ZM72,30.7c0-.51-.05-1-.12-1.54a6,6,0,0,0-.81-2A10.9,10.9,0,0,0,69,24.34a8.22,8.22,0,0,0-6.47-2.08,9.57,9.57,0,0,0-5.88,2.62,8.31,8.31,0,0,0-2.7,6.23,7.46,7.46,0,0,0,1.52,4.57,10.19,10.19,0,0,0,5.63,3.81,8.63,8.63,0,0,0,3.88.25,8.16,8.16,0,0,0,5.23-3.28A9.3,9.3,0,0,0,72,30.7Z"/><path class="cls-1" d="M21.52,21.7c.51,0,1,.07,1.54.13a1.23,1.23,0,0,1,1.16,1.06c.09.5.13,1,.18,1.51,0,.2,0,.4,0,.61a1.28,1.28,0,0,0,.54,1,1.7,1.7,0,0,0,.22.15,13.34,13.34,0,0,0,3.35,1.42,1.15,1.15,0,0,0,1.15-.31,9.72,9.72,0,0,0,.67-.77c.18-.2.34-.42.53-.61a1.3,1.3,0,0,1,1.52-.31,2.42,2.42,0,0,1,.5.27,8.14,8.14,0,0,1,1.84,1.77A1.58,1.58,0,0,1,35.12,29a2,2,0,0,1-.24.62,5.11,5.11,0,0,1-.41.62c-.18.28-.38.56-.55.85a3.19,3.19,0,0,0-.33,2.36,6.68,6.68,0,0,0,.67,1.72,2.74,2.74,0,0,0,2.56,1.53l1,0a3.13,3.13,0,0,1,.44,0,1.23,1.23,0,0,1,.92.67,2.81,2.81,0,0,1,.31,1.47,7.23,7.23,0,0,1-.29,1.9A1.65,1.65,0,0,1,37.88,42c-.58.11-1.16.23-1.75.33a2.33,2.33,0,0,0-1.71,1.2,6.49,6.49,0,0,0-.94,2.9,3.61,3.61,0,0,0,0,.87,2.11,2.11,0,0,0,.83,1.39,9.29,9.29,0,0,1,.77.6A1.31,1.31,0,0,1,35.27,51a8.54,8.54,0,0,1-2.54,2.13A1.19,1.19,0,0,1,31.31,53a2.4,2.4,0,0,1-.44-.46c-.21-.24-.39-.5-.59-.74a1.78,1.78,0,0,0-1.69-.66,6.78,6.78,0,0,0-3.21,1.34,2.8,2.8,0,0,0-1,1.75c-.08.38-.14.77-.21,1.16A5.07,5.07,0,0,1,24,56a1.65,1.65,0,0,1-1.47,1.26A6.81,6.81,0,0,1,19.62,57l-.19-.07a1.11,1.11,0,0,1-.78-1.17c0-.46,0-.93,0-1.39a2.07,2.07,0,0,0-1.16-2A6.45,6.45,0,0,0,16.39,52c-.7-.21-1.42-.38-2.11-.61a.89.89,0,0,0-1,.21l-1.14,1.06-.41.35a1.23,1.23,0,0,1-1.27.22,4.21,4.21,0,0,1-.9-.45,8,8,0,0,1-1.66-1.67A1.48,1.48,0,0,1,8.13,49c.28-.25.58-.49.86-.75a2,2,0,0,0,.53-2.37,8.74,8.74,0,0,0-.5-1,7.41,7.41,0,0,1-.74-1.62L8.19,43a1.16,1.16,0,0,0-.78-.73,4,4,0,0,0-1.81-.1H5.53A1.45,1.45,0,0,1,3.77,41a6.7,6.7,0,0,1,0-2.82,1.5,1.5,0,0,1,1.16-1.19,4.79,4.79,0,0,1,1-.18,3.46,3.46,0,0,0,2.12-1,5.38,5.38,0,0,0,1.61-2.69,2.24,2.24,0,0,0-.79-2.43c-.28-.22-.56-.45-.82-.7a1.39,1.39,0,0,1-.52-1.47A1,1,0,0,1,7.73,28c.68-.69,1.35-1.39,2.08-2a1.57,1.57,0,0,1,1.68-.26,6.72,6.72,0,0,1,.95.52c.27.17.51.38.77.54a5.86,5.86,0,0,0,.78.42,1.91,1.91,0,0,0,1.35.07,9.57,9.57,0,0,0,2.4-1.07,5.71,5.71,0,0,0,.71-.57,1.46,1.46,0,0,0,.47-1.13c0-.41-.06-.83-.07-1.25a3.59,3.59,0,0,1,0-.8.63.63,0,0,1,.6-.59l1.41-.13c.2,0,.4,0,.61,0Zm.56,10.86a8.06,8.06,0,0,0-3.51.79,6.67,6.67,0,0,0-3.88,7.07,6,6,0,0,0,3.12,4.72,7.37,7.37,0,0,0,6.55.34,5.81,5.81,0,0,0,3.39-3.18,6.9,6.9,0,0,0-1-7.34A5.94,5.94,0,0,0,22.08,32.56Z"/><path class="cls-1" d="M30.71,71c-.32,0-.65,0-1-.08a.94.94,0,0,1-.82-.67,6.2,6.2,0,0,1-.26-1,5,5,0,0,1,0-1.68,1.19,1.19,0,0,1,1.29-1,4.07,4.07,0,0,1,.5,0,1.83,1.83,0,0,0,1.72-.74,4.82,4.82,0,0,0,.95-2.11,5.45,5.45,0,0,0,.08-1.07,1.43,1.43,0,0,0-.47-1L32.09,61a1.61,1.61,0,0,1-.31-2.25,4.84,4.84,0,0,1,1.4-1.45,1,1,0,0,1,1.47.09c.18.15.35.32.52.48a2.44,2.44,0,0,0,3,.31,4.51,4.51,0,0,0,1.77-2,5.56,5.56,0,0,0,.41-1.39,4.74,4.74,0,0,1,.16-.65,1,1,0,0,1,.66-.68A8.12,8.12,0,0,1,43.4,53a1.34,1.34,0,0,1,.53.08,1.15,1.15,0,0,1,.87,1c0,.33.06.67.06,1a2,2,0,0,0,1.42,2,8.84,8.84,0,0,0,2,.44,1.39,1.39,0,0,0,1-.28l1.22-.91c.16-.12.32-.24.5-.35a1,1,0,0,1,1-.07A3.23,3.23,0,0,1,54,58.54a1.82,1.82,0,0,1-.22,1,3.35,3.35,0,0,1-.3.52,2.76,2.76,0,0,0-.18,2.86,2.48,2.48,0,0,0,2.08,1.52,6.79,6.79,0,0,0,1.35.07,1.27,1.27,0,0,1,1.33.93,3.79,3.79,0,0,1,0,2.33A2,2,0,0,1,56,69.46a1.71,1.71,0,0,0-1.5.93,8,8,0,0,0-.83,2.06,1.76,1.76,0,0,0,.11,1.22,7.33,7.33,0,0,0,.53.9c.19.28.42.53.61.81a1.4,1.4,0,0,1,0,1.84,4.56,4.56,0,0,1-1.13,1.06,1.64,1.64,0,0,1-1.64.16c-.23-.09-.44-.22-.67-.33s-.57-.31-.87-.43a2.53,2.53,0,0,0-1.63-.09,4.9,4.9,0,0,0-1.55.73A2,2,0,0,0,46.5,80c0,.45,0,.9-.07,1.35a2.21,2.21,0,0,1-.1.46.94.94,0,0,1-.89.71c-.59,0-1.17,0-1.76.06a3.24,3.24,0,0,1-1.14-.28.45.45,0,0,1-.31-.4c-.07-.36-.13-.72-.22-1.06a3.72,3.72,0,0,0-.83-1.57,3.4,3.4,0,0,0-3.06-1.08,2.52,2.52,0,0,0-1.06.42c-.34.2-.67.43-1,.63a4.62,4.62,0,0,1-.67.33A1.39,1.39,0,0,1,34,79.34a3.18,3.18,0,0,1-1-1.23,2,2,0,0,1-.06-1.54c.11-.37.27-.72.39-1.08a7.17,7.17,0,0,0,.3-1,3.12,3.12,0,0,0-.46-2.17,4.07,4.07,0,0,0-.57-.79,1.66,1.66,0,0,0-1.38-.59h-.51Zm12.38,2.33a6.5,6.5,0,0,0,2.46-.45,5.06,5.06,0,0,0,3.08-3.16,5.92,5.92,0,0,0,.16-3,5,5,0,0,0-3.28-3.89A6,6,0,0,0,42,62.54a5.71,5.71,0,0,0-2.42,1.15A4.78,4.78,0,0,0,37.8,67a5.79,5.79,0,0,0,.8,3.92A5.28,5.28,0,0,0,43.09,73.31Z"/></svg>